<svg xmlns="http://www.w3.org/2000/svg" viewBox="45 73 1517 332" width="10.94rem" height="2.39rem" font-family="Plus Jakarta Sans, sans-serif">
<defs>
<linearGradient id="tsg" gradientUnits="userSpaceOnUse" x1="268.14" y1="240.82" x2="786.11" y2="957.67">
<stop offset="0" stop-color="#38EF7D"/><stop offset="1" stop-color="#11998E"/></linearGradient>
<linearGradient id="tsgText" gradientUnits="userSpaceOnUse" x1="8" y1="-145" x2="694" y2="42">
<stop offset="0" stop-color="#38EF7D"/><stop offset="1" stop-color="#11998E"/></linearGradient>
</defs>
<g transform="translate(3.1334 8.6201) scale(0.386119)">
<g fill-rule="evenodd"><path d="M 933.03 559.89 A 326.40 326.40 0 1 0 357.70 777.45 A 495.65 495.65 0 0 0 464.95 776.16 A 246.10 246.10 0 1 1 851.13 627.68 A 641.66 641.66 0 0 0 933.03 559.89 Z" fill="url(#tsg)"/><path d="M1019.81 430.96 C1020.20 433.17 1020.70 435.49 1020.97 437.58 C1021.25 439.68 1021.40 441.47 1021.48 443.51 C1021.55 445.55 1021.55 447.72 1021.43 449.82 C1021.31 451.92 1021.06 454.04 1020.77 456.14 C1020.48 458.24 1020.10 460.33 1019.67 462.41 C1019.24 464.49 1018.73 466.56 1018.19 468.62 C1017.65 470.67 1017.06 472.72 1016.42 474.75 C1015.79 476.79 1015.11 478.81 1014.37 480.81 C1013.64 482.81 1012.85 484.79 1012.03 486.75 C1011.21 488.72 1010.35 490.67 1009.46 492.61 C1008.56 494.54 1007.64 496.46 1006.67 498.36 C1005.70 500.26 1004.68 502.13 1003.64 503.99 C1002.60 505.85 1001.52 507.69 1000.44 509.53 C999.35 511.36 998.26 513.19 997.13 515.00 C995.99 516.80 994.82 518.58 993.62 520.35 C992.43 522.11 991.19 523.85 989.95 525.58 C988.71 527.32 987.45 529.04 986.18 530.75 C984.91 532.47 983.63 534.17 982.33 535.87 C981.04 537.56 979.73 539.25 978.41 540.92 C977.08 542.59 975.74 544.25 974.39 545.89 C973.03 547.54 971.65 549.17 970.27 550.79 C968.88 552.40 967.47 554.01 966.06 555.60 C964.64 557.19 963.21 558.78 961.77 560.34 C960.32 561.91 958.85 563.45 957.37 564.99 C955.89 566.53 954.39 568.04 952.89 569.56 C951.39 571.08 949.89 572.59 948.38 574.10 C946.87 575.61 945.36 577.12 943.84 578.61 C942.32 580.11 940.80 581.61 939.26 583.08 C937.72 584.56 936.17 586.03 934.61 587.48 C933.05 588.93 931.47 590.36 929.89 591.79 C928.31 593.22 926.72 594.65 925.13 596.07 C923.53 597.48 921.93 598.89 920.32 600.29 C918.71 601.68 917.09 603.07 915.47 604.45 C913.84 605.83 912.21 607.21 910.57 608.57 C908.93 609.93 907.27 611.27 905.61 612.61 C903.96 613.95 902.30 615.30 900.64 616.64 C898.98 617.98 897.33 619.32 895.66 620.65 C894.00 621.99 892.33 623.31 890.65 624.63 C888.97 625.94 887.28 627.24 885.58 628.54 C883.89 629.83 882.18 631.12 880.48 632.39 C878.77 633.67 877.06 634.95 875.34 636.21 C873.62 637.47 871.89 638.72 870.16 639.97 C868.43 641.22 866.69 642.46 864.96 643.70 C863.22 644.94 861.49 646.18 859.75 647.41 C858.01 648.65 856.27 649.89 854.52 651.11 C852.78 652.33 851.02 653.55 849.26 654.75 C847.50 655.96 845.73 657.15 843.96 658.34 C842.19 659.53 840.41 660.71 838.63 661.89 C836.85 663.06 835.08 664.24 833.29 665.40 C831.50 666.57 829.71 667.72 827.90 668.86 C826.10 670.00 824.29 671.13 822.47 672.25 C820.66 673.37 818.84 674.48 817.01 675.59 C815.19 676.69 813.35 677.77 811.52 678.86 C809.68 679.95 807.85 681.03 806.01 682.12 C804.17 683.20 802.34 684.30 800.50 685.38 C798.66 686.45 796.82 687.53 794.97 688.59 C793.13 689.66 791.27 690.72 789.42 691.77 C787.56 692.82 785.71 693.86 783.84 694.90 C781.97 695.93 780.10 696.95 778.23 697.97 C776.35 698.98 774.47 699.99 772.59 701.00 C770.71 702.00 768.82 702.99 766.92 703.97 C765.03 704.95 763.13 705.91 761.22 706.88 C759.32 707.84 757.41 708.80 755.50 709.75 C753.59 710.70 751.68 711.65 749.77 712.60 C747.86 713.54 745.94 714.48 744.02 715.41 C742.10 716.34 740.18 717.26 738.25 718.17 C736.32 719.08 734.39 719.98 732.45 720.89 C730.52 721.79 728.59 722.70 726.66 723.60 C724.72 724.50 722.79 725.39 720.84 726.27 C718.90 727.15 716.95 728.02 715.00 728.88 C713.05 729.74 711.09 730.59 709.13 731.42 C707.17 732.25 705.20 733.07 703.23 733.89 C701.26 734.70 699.28 735.51 697.31 736.32 C695.33 737.13 693.36 737.95 691.39 738.75 C689.41 739.56 687.44 740.36 685.45 741.14 C683.47 741.92 681.48 742.68 679.48 743.44 C677.49 744.20 675.49 744.95 673.50 745.70 C671.50 746.45 669.50 747.20 667.50 747.94 C665.50 748.68 663.51 749.42 661.50 750.15 C659.50 750.88 657.49 751.60 655.48 752.31 C653.47 753.02 651.45 753.73 649.44 754.44 C647.43 755.14 645.42 755.86 643.41 756.57 C641.39 757.27 639.38 757.98 637.36 758.66 C635.34 759.34 633.31 760.00 631.28 760.65 C629.25 761.30 627.21 761.93 625.17 762.56 C623.14 763.20 621.10 763.84 619.06 764.47 C617.03 765.11 614.99 765.75 612.95 766.37 C610.92 767.00 608.87 767.62 606.83 768.23 C604.79 768.84 602.74 769.44 600.69 770.04 C598.64 770.63 596.59 771.22 594.54 771.80 C592.49 772.39 590.44 772.96 588.38 773.53 C586.32 774.09 584.26 774.63 582.19 775.17 C580.13 775.72 578.06 776.25 576.00 776.79 C573.94 777.33 571.88 777.89 569.82 778.43 C567.75 778.97 565.69 779.52 563.62 780.04 C561.55 780.55 559.48 781.05 557.41 781.53 C555.33 782.02 553.25 782.48 551.17 782.94 C549.09 783.41 547.01 783.87 544.93 784.33 C542.85 784.78 540.77 785.24 538.69 785.69 C536.61 786.13 534.52 786.56 532.44 786.98 C530.35 787.41 528.26 787.83 526.17 788.23 C524.08 788.64 521.99 789.04 519.90 789.42 C517.81 789.81 515.71 790.17 513.61 790.53 C511.52 790.89 509.42 791.24 507.32 791.58 C505.22 791.92 503.12 792.26 501.01 792.58 C498.91 792.90 496.81 793.21 494.70 793.51 C492.60 793.82 490.49 794.12 488.39 794.42 C486.28 794.72 484.17 795.01 482.07 795.29 C479.96 795.58 477.85 795.85 475.74 796.10 C473.63 796.36 471.52 796.59 469.41 796.82 C467.30 797.05 465.18 797.25 463.07 797.47 C460.95 797.68 458.84 797.89 456.72 798.09 C454.61 798.29 452.49 798.49 450.38 798.66 C448.26 798.84 446.14 799.00 444.02 799.16 C441.90 799.31 439.78 799.48 437.66 799.62 C435.54 799.75 433.41 799.85 431.29 799.95 C429.16 800.06 427.04 800.14 424.91 800.26 C422.78 800.37 420.66 800.53 418.54 800.64 C416.41 800.75 414.28 800.85 412.15 800.91 C410.02 800.97 407.89 801.00 405.75 801.01 C403.62 801.03 401.49 801.03 399.35 801.01 C397.22 800.99 395.09 800.95 392.96 800.88 C390.83 800.81 388.70 800.70 386.57 800.58 C384.45 800.47 382.32 800.32 380.20 800.21 C378.07 800.09 375.95 800.02 373.82 799.91 C371.70 799.80 369.57 799.69 367.45 799.54 C365.33 799.39 363.21 799.20 361.10 799.01 C358.98 798.82 356.87 798.62 354.75 798.40 C352.64 798.18 350.53 797.95 348.42 797.70 C346.31 797.44 344.20 797.17 342.09 796.88 C339.99 796.59 337.88 796.28 335.78 795.96 C333.68 795.63 331.58 795.29 329.48 794.92 C327.39 794.55 325.30 794.17 323.21 793.76 C321.12 793.35 319.04 792.92 316.96 792.46 C314.88 792.00 312.81 791.51 310.74 790.99 C308.67 790.47 306.62 789.92 304.56 789.35 C302.51 788.77 300.46 788.17 298.42 787.56 C296.38 786.95 294.34 786.32 292.31 785.66 C290.29 785.01 288.26 784.35 286.25 783.64 C284.24 782.93 282.24 782.20 280.26 781.42 C278.28 780.64 276.31 779.81 274.37 778.95 C272.42 778.09 270.48 777.18 268.57 776.25 C266.65 775.32 264.75 774.36 262.87 773.35 C261.00 772.34 259.14 771.29 257.32 770.19 C255.50 769.09 253.70 767.94 251.94 766.74 C250.18 765.54 248.44 764.30 246.77 763.00 C245.09 761.69 243.46 760.32 241.87 758.90 C240.29 757.48 238.75 756.00 237.26 754.48 C235.77 752.96 234.31 751.40 232.94 749.78 C231.58 748.16 230.26 746.48 229.05 744.74 C227.84 743.00 226.71 741.19 225.68 739.34 C224.64 737.49 223.69 735.58 222.84 733.64 C222.00 731.69 221.25 729.70 220.60 727.68 C219.95 725.66 219.40 723.60 218.95 721.53 C218.50 719.46 218.12 717.36 217.89 715.27 C217.65 713.17 217.54 711.06 217.56 708.95 C217.59 706.84 217.79 704.73 218.05 702.63 C218.30 700.53 218.66 698.43 219.07 696.35 C219.49 694.27 219.97 692.19 220.52 690.14 C221.08 688.09 221.71 686.05 222.39 684.04 C223.07 682.02 223.83 680.03 224.62 678.05 C225.42 676.08 226.28 674.12 227.17 672.19 C228.05 670.25 228.99 668.33 229.96 666.43 C230.92 664.53 231.91 662.64 232.95 660.78 C233.98 658.92 235.06 657.07 236.17 655.25 C237.28 653.44 238.43 651.64 239.61 649.87 C240.79 648.09 242.01 646.34 243.25 644.61 C244.50 642.88 245.78 641.17 247.08 639.49 C248.39 637.80 249.73 636.14 251.09 634.51 C252.46 632.87 253.87 631.26 255.29 629.68 C256.70 628.10 258.22 626.52 259.60 625.02 C260.99 623.53 262.57 621.85 263.61 620.72 C264.64 619.58 265.58 618.99 266.218 618.21 A344.40 344.40 0 0 1 264.078 601.36 C262.47 602.68 260.53 604.01 258.85 605.30 C257.18 606.59 255.79 607.76 254.23 609.10 C252.67 610.44 251.05 611.90 249.49 613.35 C247.94 614.79 246.41 616.29 244.88 617.78 C243.35 619.27 241.84 620.77 240.33 622.28 C238.82 623.79 237.32 625.30 235.83 626.83 C234.34 628.36 232.85 629.88 231.39 631.44 C229.93 632.99 228.49 634.56 227.07 636.15 C225.65 637.74 224.25 639.35 222.88 640.98 C221.50 642.61 220.15 644.26 218.82 645.93 C217.50 647.60 216.19 649.29 214.92 650.99 C213.64 652.70 212.39 654.43 211.17 656.18 C209.95 657.93 208.75 659.69 207.58 661.48 C206.41 663.26 205.26 665.06 204.14 666.87 C203.02 668.68 201.93 670.52 200.86 672.36 C199.80 674.21 198.77 676.08 197.76 677.96 C196.76 679.84 195.79 681.74 194.85 683.65 C193.91 685.57 193.00 687.49 192.13 689.44 C191.26 691.39 190.43 693.35 189.64 695.33 C188.85 697.31 188.10 699.30 187.41 701.32 C186.72 703.33 186.08 705.36 185.50 707.41 C184.93 709.46 184.41 711.52 183.98 713.60 C183.55 715.68 183.19 717.77 182.92 719.88 C182.64 721.98 182.45 724.10 182.31 726.22 C182.18 728.34 182.13 730.48 182.13 732.60 C182.13 734.73 182.19 736.86 182.34 738.98 C182.49 741.10 182.70 743.22 183.02 745.32 C183.34 747.41 183.75 749.50 184.26 751.56 C184.76 753.62 185.37 755.66 186.05 757.67 C186.73 759.68 187.50 761.67 188.33 763.63 C189.15 765.60 190.05 767.53 191.00 769.44 C191.95 771.34 192.96 773.22 194.03 775.06 C195.10 776.90 196.24 778.70 197.42 780.47 C198.60 782.24 199.85 783.97 201.13 785.67 C202.41 787.37 203.74 789.03 205.11 790.66 C206.48 792.29 207.89 793.89 209.36 795.44 C210.82 796.98 212.33 798.49 213.88 799.94 C215.44 801.39 217.05 802.78 218.69 804.15 C220.33 805.51 222.01 806.82 223.70 808.12 C225.40 809.41 227.11 810.67 228.86 811.90 C230.60 813.12 232.37 814.31 234.17 815.46 C235.96 816.60 237.79 817.71 239.63 818.78 C241.47 819.86 243.33 820.89 245.21 821.90 C247.09 822.90 248.99 823.87 250.91 824.81 C252.82 825.75 254.75 826.66 256.69 827.54 C258.63 828.43 260.58 829.29 262.54 830.13 C264.50 830.96 266.48 831.77 268.46 832.56 C270.44 833.35 272.43 834.11 274.43 834.86 C276.43 835.60 278.43 836.34 280.44 837.03 C282.46 837.72 284.49 838.37 286.53 838.99 C288.56 839.62 290.62 840.19 292.67 840.77 C294.72 841.35 296.78 841.92 298.84 842.46 C300.90 843.00 302.97 843.53 305.04 844.03 C307.11 844.52 309.19 844.99 311.27 845.45 C313.35 845.90 315.43 846.33 317.52 846.74 C319.61 847.15 321.70 847.54 323.80 847.91 C332.08 849.37 340.36 851.23 348.64 853.05 C348.05 855.21 347.50 857.50 346.88 859.52 C346.26 861.54 345.61 863.23 344.93 865.17 C344.24 867.11 343.49 869.16 342.77 871.16 C342.04 873.17 341.31 875.17 340.58 877.18 C339.85 879.18 339.12 881.19 338.39 883.19 C337.66 885.20 336.94 887.20 336.20 889.20 C335.47 891.21 334.74 893.21 334.00 895.21 C333.25 897.21 332.50 899.20 331.74 901.20 C330.97 903.19 330.19 905.17 329.42 907.16 C328.64 909.15 327.86 911.13 327.09 913.12 C326.31 915.11 325.55 917.10 324.79 919.09 C324.02 921.08 323.25 923.07 322.48 925.06 C321.72 927.05 320.93 929.04 320.18 931.03 C319.44 933.02 318.59 935.14 318.00 937.02 C317.40 938.90 316.89 940.92 316.62 942.29 C316.35 943.67 316.35 944.30 316.38 945.26 C316.40 946.23 316.51 947.20 316.75 948.09 C316.99 948.98 317.35 949.85 317.82 950.62 C318.29 951.39 318.90 952.10 319.58 952.69 C320.27 953.28 321.07 953.78 321.92 954.17 C322.76 954.56 323.71 954.84 324.66 955.03 C325.61 955.23 326.10 955.38 327.63 955.33 C329.17 955.29 331.77 955.09 333.84 954.76 C335.91 954.42 338.00 953.89 340.05 953.34 C342.11 952.79 344.14 952.14 346.16 951.46 C348.18 950.78 350.16 950.01 352.15 949.25 C354.15 948.49 356.12 947.68 358.11 946.91 C360.09 946.13 362.08 945.37 364.07 944.61 C366.06 943.84 368.06 943.09 370.05 942.32 C372.04 941.54 374.02 940.76 376.00 939.97 C377.98 939.18 379.95 938.37 381.93 937.57 C383.91 936.77 385.89 935.98 387.87 935.19 C389.85 934.39 391.83 933.61 393.80 932.80 C395.77 931.99 397.74 931.17 399.70 930.34 C401.67 929.51 403.62 928.66 405.58 927.82 C407.54 926.97 409.49 926.11 411.44 925.25 C413.39 924.39 415.34 923.52 417.29 922.66 C419.24 921.79 421.18 920.92 423.13 920.06 C425.08 919.19 427.03 918.32 428.98 917.45 C430.92 916.58 432.87 915.71 434.81 914.82 C436.75 913.93 438.68 913.04 440.62 912.13 C442.55 911.23 444.47 910.30 446.40 909.40 C448.33 908.49 450.26 907.59 452.20 906.68 C454.13 905.77 456.06 904.87 457.98 903.95 C459.91 903.04 461.84 902.11 463.76 901.19 C465.67 900.26 467.63 899.31 469.49 898.40 C471.36 897.49 473.33 896.50 474.94 895.72 C476.56 894.95 478.06 894.24 479.19 893.75 C480.33 893.26 480.91 893.10 481.77 892.77 C483.86 893.61 486.08 894.48 488.05 895.28 C490.02 896.08 491.68 896.79 493.59 897.56 C495.50 898.34 497.53 899.15 499.51 899.93 C501.49 900.70 503.49 901.47 505.48 902.22 C507.48 902.98 509.48 903.72 511.49 904.44 C513.49 905.16 515.51 905.86 517.53 906.53 C519.56 907.20 521.59 907.84 523.63 908.46 C525.67 909.08 527.72 909.66 529.78 910.23 C531.83 910.81 533.89 911.37 535.95 911.92 C538.01 912.47 540.07 913.01 542.14 913.54 C544.21 914.06 546.27 914.57 548.35 915.05 C550.42 915.53 552.51 915.98 554.59 916.41 C556.68 916.84 558.77 917.24 560.86 917.62 C562.95 918.01 565.04 918.38 567.14 918.73 C569.24 919.08 571.34 919.40 573.45 919.69 C575.55 919.99 577.66 920.26 579.77 920.52 C581.88 920.78 583.99 921.03 586.11 921.24 C588.22 921.45 590.34 921.63 592.47 921.78 C594.59 921.93 596.72 922.03 598.85 922.15 C600.98 922.26 603.11 922.38 605.24 922.48 C607.37 922.58 609.50 922.69 611.63 922.74 C613.76 922.80 615.89 922.83 618.03 922.81 C620.16 922.79 622.29 922.73 624.41 922.64 C626.54 922.55 628.66 922.41 630.79 922.27 C632.91 922.14 635.03 922.01 637.15 921.84 C639.27 921.67 641.39 921.49 643.50 921.27 C645.62 921.05 647.72 920.77 649.83 920.52 C651.94 920.26 654.05 920.01 656.16 919.74 C658.27 919.46 660.38 919.19 662.48 918.88 C664.58 918.56 666.68 918.21 668.77 917.83 C670.87 917.45 672.95 917.04 675.04 916.62 C677.13 916.19 679.21 915.75 681.29 915.28 C683.37 914.81 685.44 914.32 687.51 913.80 C689.58 913.29 691.64 912.76 693.70 912.20 C695.76 911.64 697.81 911.06 699.86 910.46 C701.90 909.86 703.94 909.23 705.97 908.58 C708.00 907.93 710.02 907.26 712.04 906.58 C714.06 905.90 716.07 905.20 718.08 904.49 C720.09 903.78 722.10 903.07 724.10 902.33 C726.10 901.59 728.09 900.83 730.07 900.03 C732.05 899.24 734.01 898.41 735.97 897.56 C737.93 896.72 739.87 895.84 741.81 894.96 C743.75 894.07 745.69 893.17 747.61 892.26 C749.54 891.35 751.46 890.43 753.37 889.48 C755.28 888.53 757.17 887.56 759.06 886.56 C760.94 885.57 762.81 884.55 764.67 883.51 C766.54 882.47 768.39 881.42 770.23 880.34 C772.07 879.26 773.89 878.15 775.70 877.03 C777.52 875.91 779.31 874.76 781.11 873.61 C782.90 872.45 784.70 871.30 786.48 870.12 C788.25 868.94 790.02 867.75 791.76 866.52 C793.50 865.30 795.22 864.03 796.93 862.75 C798.64 861.48 800.33 860.18 802.02 858.88 C803.71 857.58 805.40 856.28 807.07 854.96 C808.75 853.64 810.41 852.31 812.06 850.96 C813.71 849.61 815.34 848.23 816.97 846.86 C818.60 845.48 820.22 844.09 821.83 842.69 C823.43 841.29 825.04 839.89 826.61 838.45 C828.19 837.02 829.75 835.56 831.29 834.08 C832.82 832.61 834.34 831.10 835.84 829.59 C837.35 828.08 838.83 826.55 840.30 825.00 C841.77 823.46 843.22 821.89 844.66 820.32 C846.10 818.74 847.52 817.16 848.93 815.56 C850.35 813.97 851.76 812.37 853.14 810.75 C854.53 809.13 855.90 807.50 857.26 805.85 C858.62 804.21 859.96 802.55 861.29 800.89 C862.62 799.22 863.95 797.55 865.25 795.86 C866.56 794.18 867.85 792.48 869.12 790.77 C870.39 789.05 871.63 787.32 872.87 785.58 C874.10 783.84 875.32 782.09 876.52 780.33 C877.73 778.57 878.92 776.80 880.09 775.02 C881.26 773.24 882.42 771.45 883.56 769.65 C884.70 767.84 885.82 766.03 886.93 764.21 C888.04 762.39 889.12 760.55 890.20 758.71 C891.28 756.87 892.35 755.03 893.40 753.18 C894.46 751.32 895.51 749.47 896.53 747.59 C897.54 745.72 898.53 743.83 899.51 741.94 C900.49 740.04 901.45 738.13 902.39 736.22 C903.34 734.31 904.28 732.39 905.20 730.47 C906.12 728.55 907.02 726.61 907.91 724.67 C908.80 722.73 909.67 720.79 910.51 718.83 C911.36 716.87 912.18 714.91 912.98 712.93 C913.78 710.95 914.55 708.96 915.32 706.98 C916.09 704.99 916.86 703.00 917.61 701.00 C918.35 699.00 919.09 697.00 919.79 694.99 C920.49 692.97 921.16 690.95 921.82 688.92 C922.47 686.89 923.10 684.85 923.73 682.81 C924.36 680.78 924.99 678.74 925.59 676.69 C926.20 674.65 926.79 672.60 927.35 670.54 C927.91 668.48 928.44 666.42 928.96 664.35 C929.47 662.28 929.96 660.20 930.45 658.13 C930.93 656.05 931.38 653.96 931.86 651.89 L934.90 638.40 L947.66 625.75 C949.19 624.27 950.72 622.77 952.23 621.27 C953.75 619.77 955.26 618.27 956.77 616.76 C958.28 615.25 959.78 613.74 961.28 612.22 C962.78 610.70 964.28 609.18 965.75 607.64 C967.23 606.10 968.70 604.55 970.15 602.99 C971.61 601.43 973.04 599.86 974.47 598.28 C975.91 596.70 977.34 595.12 978.75 593.52 C980.16 591.92 981.56 590.31 982.94 588.69 C984.31 587.06 985.67 585.41 987.02 583.76 C988.36 582.11 989.70 580.44 991.02 578.77 C992.34 577.10 993.66 575.42 994.96 573.73 C996.26 572.04 997.55 570.34 998.81 568.62 C1000.08 566.91 1001.34 565.18 1002.57 563.44 C1003.80 561.70 1005.00 559.94 1006.20 558.17 C1007.40 556.41 1008.59 554.64 1009.76 552.86 C1010.94 551.08 1012.12 549.30 1013.27 547.50 C1014.42 545.71 1015.56 543.90 1016.67 542.08 C1017.78 540.26 1018.86 538.42 1019.91 536.57 C1020.97 534.72 1021.99 532.84 1022.99 530.96 C1023.99 529.08 1024.96 527.18 1025.92 525.27 C1026.89 523.37 1027.85 521.46 1028.78 519.55 C1029.71 517.63 1030.63 515.70 1031.51 513.76 C1032.39 511.82 1033.24 509.86 1034.04 507.89 C1034.84 505.92 1035.61 503.93 1036.33 501.92 C1037.05 499.92 1037.74 497.90 1038.37 495.87 C1039.01 493.84 1039.60 491.80 1040.14 489.74 C1040.68 487.68 1041.16 485.61 1041.59 483.53 C1042.03 481.45 1042.41 479.35 1042.74 477.26 C1043.07 475.16 1043.34 473.05 1043.57 470.94 C1043.80 468.83 1043.96 466.71 1044.09 464.60 C1044.23 462.48 1044.35 460.37 1044.39 458.26 C1044.43 456.15 1044.42 454.05 1044.33 451.94 C1044.25 449.83 1044.08 447.72 1043.87 445.61 C1043.67 443.51 1043.41 441.39 1043.09 439.30 C1042.77 437.20 1042.38 435.10 1041.95 433.03 C1041.51 430.96 1040.98 428.84 1040.45 426.85 C1039.93 424.86 1039.27 422.69 1038.80 421.10 C1038.34 419.50 1037.96 418.34 1037.65 417.26 C1037.33 416.17 1037.16 415.48 1036.92 414.59 C1037.79 412.52 1038.78 410.34 1039.53 408.37 C1040.28 406.39 1040.90 404.71 1041.40 402.74 C1041.91 400.77 1042.31 398.64 1042.56 396.55 C1042.82 394.47 1042.92 392.33 1042.92 390.21 C1042.92 388.10 1042.82 385.97 1042.56 383.88 C1042.29 381.79 1041.89 379.70 1041.33 377.68 C1040.77 375.65 1040.04 373.65 1039.19 371.72 C1038.35 369.78 1037.35 367.89 1036.26 366.09 C1035.17 364.28 1033.96 362.52 1032.64 360.87 C1031.33 359.22 1029.90 357.64 1028.37 356.20 C1026.83 354.76 1025.17 353.44 1023.43 352.25 C1021.69 351.06 1019.84 350.00 1017.94 349.06 C1016.05 348.13 1014.07 347.32 1012.07 346.65 C1010.07 345.98 1008.01 345.42 1005.94 345.03 C1003.87 344.64 1001.75 344.38 999.65 344.32 C997.55 344.25 995.42 344.36 993.34 344.63 C991.26 344.91 989.18 345.36 987.17 345.97 C985.16 346.57 983.17 347.34 981.28 348.25 C979.39 349.16 977.56 350.25 975.81 351.43 C974.06 352.61 972.37 353.93 970.78 355.32 C969.18 356.71 967.64 358.19 966.24 359.76 C964.84 361.34 963.52 363.02 962.36 364.77 C961.19 366.53 960.14 368.39 959.23 370.29 C958.31 372.19 957.52 374.17 956.87 376.18 C956.22 378.18 955.69 380.25 955.32 382.32 C954.94 384.39 954.68 386.50 954.60 388.60 C954.52 390.69 954.60 392.81 954.84 394.89 C955.08 396.98 955.50 399.07 956.04 401.10 C956.58 403.14 957.28 405.15 958.09 407.10 C958.90 409.05 959.83 410.98 960.89 412.80 C961.96 414.62 963.15 416.38 964.46 418.02 C965.78 419.66 967.25 421.20 968.80 422.63 C970.35 424.07 972.02 425.40 973.75 426.62 C975.47 427.84 977.28 428.99 979.14 429.96 C981.01 430.94 982.95 431.80 984.94 432.47 C986.93 433.14 988.99 433.64 991.06 434.00 C993.14 434.36 995.26 434.56 997.37 434.62 C999.47 434.67 1001.61 434.57 1003.69 434.33 C1005.77 434.10 1007.91 433.62 1009.83 433.21 C1011.75 432.80 1013.97 432.17 1015.19 431.87 C1016.42 431.57 1016.41 431.55 1017.18 431.40 C1017.95 431.25 1018.93 431.11 1019.81 430.96 Z M549.71 835.94 C553.74 834.73 557.77 833.27 561.80 832.26 C563.79 831.75 565.91 831.24 567.97 830.72 C570.03 830.19 572.10 829.64 574.16 829.09 C576.22 828.54 578.28 827.98 580.34 827.42 C582.40 826.86 584.45 826.30 586.51 825.73 C588.57 825.17 590.62 824.60 592.68 824.03 C594.73 823.46 596.79 822.89 598.84 822.30 C600.89 821.71 602.93 821.11 604.98 820.51 C607.02 819.90 609.06 819.28 611.10 818.65 C613.13 818.02 615.17 817.37 617.20 816.72 C619.23 816.07 621.26 815.40 623.28 814.74 C625.31 814.07 627.33 813.40 629.36 812.72 C631.38 812.05 633.40 811.37 635.42 810.70 C637.45 810.02 639.47 809.34 641.49 808.65 C643.51 807.96 645.52 807.27 647.54 806.56 C649.55 805.86 651.55 805.14 653.56 804.41 C655.56 803.68 657.56 802.94 659.56 802.20 C661.57 801.47 663.57 800.74 665.57 799.99 C667.56 799.24 669.56 798.50 671.55 797.73 C673.54 796.96 675.52 796.17 677.50 795.37 C679.47 794.57 681.44 793.75 683.41 792.94 C685.39 792.12 687.36 791.31 689.33 790.50 C691.30 789.69 693.28 788.88 695.25 788.07 C697.22 787.25 699.19 786.43 701.16 785.61 C703.12 784.78 705.09 783.96 707.05 783.12 C709.01 782.27 710.96 781.41 712.90 780.55 C714.85 779.68 716.79 778.80 718.74 777.92 C720.68 777.05 722.63 776.17 724.57 775.29 C726.51 774.41 728.45 773.52 730.38 772.61 C732.31 771.71 734.23 770.79 736.15 769.86 C738.07 768.93 739.98 767.98 741.89 767.04 C743.81 766.09 745.72 765.14 747.62 764.19 C749.53 763.24 751.44 762.28 753.35 761.33 C755.25 760.37 757.16 759.41 759.06 758.44 C760.96 757.48 762.86 756.51 764.76 755.53 C766.65 754.54 768.53 753.55 770.42 752.55 C772.30 751.55 774.17 750.53 776.05 749.52 C777.92 748.50 779.80 747.48 781.66 746.46 C783.53 745.43 785.40 744.40 787.26 743.36 C789.13 742.33 790.99 741.30 792.85 740.26 C794.71 739.22 796.57 738.18 798.43 737.12 C800.28 736.07 802.13 735.00 803.97 733.94 C805.82 732.87 807.67 731.79 809.50 730.72 C811.33 729.65 813.23 728.54 814.97 727.54 C816.72 726.53 818.74 725.39 819.97 724.71 C821.60 723.81 823.22 723.17 824.85 722.27 C821.78 727.90 818.70 733.94 815.63 738.44 C814.43 740.20 813.19 741.94 811.95 743.67 C810.71 745.41 809.45 747.13 808.18 748.84 C806.91 750.55 805.64 752.26 804.34 753.95 C803.03 755.64 801.72 757.31 800.37 758.97 C799.03 760.62 797.66 762.25 796.27 763.87 C794.88 765.49 793.46 767.08 792.04 768.67 C790.62 770.26 789.19 771.84 787.74 773.40 C786.29 774.96 784.83 776.51 783.34 778.04 C781.86 779.57 780.35 781.08 778.83 782.57 C777.31 784.07 775.77 785.55 774.21 786.99 C772.65 788.44 771.06 789.86 769.45 791.26 C767.85 792.67 766.22 794.05 764.58 795.40 C762.94 796.76 761.28 798.10 759.60 799.41 C757.92 800.72 756.22 802.01 754.50 803.27 C752.78 804.53 751.03 805.76 749.28 806.97 C747.53 808.18 745.76 809.37 743.97 810.54 C742.19 811.72 740.40 812.87 738.60 814.01 C736.79 815.14 734.97 816.25 733.13 817.34 C731.30 818.42 729.44 819.47 727.57 820.49 C725.70 821.51 723.81 822.50 721.91 823.46 C720.00 824.41 718.08 825.34 716.15 826.25 C714.22 827.15 712.28 828.02 710.32 828.88 C708.37 829.73 706.40 830.56 704.43 831.36 C702.46 832.17 700.48 832.96 698.48 833.72 C696.49 834.47 694.49 835.21 692.47 835.90 C690.46 836.60 688.43 837.26 686.40 837.90 C684.36 838.53 682.32 839.13 680.27 839.71 C678.22 840.30 676.16 840.86 674.10 841.39 C672.03 841.92 669.96 842.43 667.88 842.90 C665.81 843.36 663.72 843.77 661.63 844.16 C659.54 844.56 657.44 844.91 655.34 845.25 C653.24 845.60 651.14 845.93 649.04 846.23 C646.93 846.52 644.83 846.79 642.72 847.02 C640.60 847.25 638.49 847.46 636.37 847.60 C634.25 847.75 632.12 847.83 629.99 847.90 C627.86 847.96 625.73 847.96 623.60 847.98 C621.47 847.99 619.33 847.99 617.20 847.99 C615.07 847.98 612.93 847.99 610.80 847.96 C608.67 847.93 606.54 847.91 604.41 847.81 C602.29 847.72 600.17 847.58 598.05 847.40 C595.93 847.22 593.82 846.98 591.71 846.72 C589.61 846.45 587.50 846.15 585.41 845.80 C583.31 845.46 581.22 845.08 579.13 844.67 C577.04 844.26 574.96 843.82 572.88 843.34 C570.81 842.86 568.73 842.35 566.68 841.81 C564.63 841.27 562.51 840.68 560.57 840.10 C556.95 839.02 553.33 837.32 549.71 835.94 Z" fill="url(#tsg)"/><path d="M874.52 354.20 C901.53 351.43 928.98 354.79 954.92 362.63 L948.99 376.10 C928.26 370.03 906.54 366.99 884.93 368.05 A341.70 341.70 0 0 0 874.52 354.20 Z" fill="url(#tsg)"/></g>
<circle cx="1000.0" cy="390.5" r="46.5" fill="url(#tsg)"/>
<circle cx="496.40" cy="573.20" r="35.70" fill="url(#tsg)"/><circle cx="609.80" cy="573.20" r="35.70" fill="url(#tsg)"/><circle cx="723.20" cy="573.20" r="35.70" fill="url(#tsg)"/>
</g>
<g transform="translate(449.8 315.7)" fill="#FFFFFF"><path d="M40.800000000000004 0.0V-125.0H2.2V-149.0H106.2V-125.0H68.2V0.0ZM153.60000000000002 2.4000000000000004Q142.20000000000002 2.4000000000000004 133.8 -1.4Q125.4 -5.2 120.80000000000001 -12.3Q116.2 -19.400000000000002 116.2 -28.8Q116.2 -37.800000000000004 120.2 -44.900000000000006Q124.2 -52.0 132.6 -56.8Q141.0 -61.6 153.8 -63.6L189.4 -69.4V-49.400000000000006L158.8 -44.2Q151.0 -42.800000000000004 147.2 -39.2Q143.4 -35.6 143.4 -29.8Q143.4 -24.200000000000003 147.7 -20.900000000000002Q152.0 -17.6 158.4 -17.6Q166.60000000000002 -17.6 172.9 -21.1Q179.2 -24.6 182.7 -30.8Q186.20000000000002 -37.0 186.20000000000002 -44.400000000000006V-72.4Q186.20000000000002 -79.4 180.7 -84.10000000000001Q175.2 -88.80000000000001 166.20000000000002 -88.80000000000001Q157.8 -88.80000000000001 151.3 -84.30000000000001Q144.8 -79.80000000000001 141.8 -72.4L120.4 -82.80000000000001Q123.60000000000001 -91.4 130.5 -97.7Q137.4 -104.0 146.8 -107.6Q156.20000000000002 -111.2 167.20000000000002 -111.2Q180.60000000000002 -111.2 190.8 -106.30000000000001Q201.0 -101.4 206.7 -92.7Q212.4 -84.0 212.4 -72.4V0.0H187.60000000000002V-18.6L193.20000000000002 -19.0Q189.0 -12.0 183.2 -7.3Q177.4 -2.6 170.0 -0.09999999999999987Q162.60000000000002 2.4000000000000004 153.60000000000002 2.4000000000000004ZM236.6 0.0V-151.4H262.8V0.0ZM287.0 0.0V-151.4H313.20000000000005V-52.2L303.2 -55.2L354.40000000000003 -108.80000000000001H387.0L346.8 -65.0L387.8 0.0H357.8L322.20000000000005 -56.400000000000006L337.8 -59.6L305.0 -24.400000000000002L313.20000000000005 -40.400000000000006V0.0Z"/></g>
<g transform="translate(840.0 315.7)" fill="url(#tsgText)"><path d="M67.60000000000001 2.4000000000000004Q53.400000000000006 2.4000000000000004 41.300000000000004 -2.8Q29.200000000000003 -8.0 20.5 -17.3Q11.8 -26.6 7.800000000000001 -39.0L30.400000000000002 -48.800000000000004Q35.800000000000004 -36.0 46.0 -28.700000000000003Q56.2 -21.400000000000002 69.0 -21.400000000000002Q76.2 -21.400000000000002 81.5 -23.700000000000003Q86.80000000000001 -26.0 89.70000000000002 -30.0Q92.60000000000001 -34.0 92.60000000000001 -39.6Q92.60000000000001 -46.2 88.70000000000002 -50.5Q84.80000000000001 -54.800000000000004 77.0 -57.2L48.400000000000006 -66.4Q31.0 -71.8 22.2 -82.6Q13.4 -93.4 13.4 -108.0Q13.4 -120.80000000000001 19.7 -130.60000000000002Q26.0 -140.4 37.3 -145.9Q48.6 -151.4 63.2 -151.4Q76.60000000000001 -151.4 87.80000000000001 -146.7Q99.0 -142.0 107.1 -133.7Q115.2 -125.4 119.2 -114.2L96.80000000000001 -104.2Q92.4 -115.4 83.6 -121.5Q74.8 -127.60000000000001 63.2 -127.60000000000001Q56.400000000000006 -127.60000000000001 51.2 -125.30000000000001Q46.0 -123.0 43.1 -118.9Q40.2 -114.80000000000001 40.2 -109.2Q40.2 -103.0 44.2 -98.30000000000001Q48.2 -93.60000000000001 56.400000000000006 -91.0L83.80000000000001 -82.4Q101.60000000000001 -76.60000000000001 110.5 -66.4Q119.4 -56.2 119.4 -41.2Q119.4 -28.400000000000002 112.80000000000001 -18.6Q106.2 -8.8 94.6 -3.2Q83.0 2.4000000000000004 67.60000000000001 2.4000000000000004ZM141.6 40.0V-108.80000000000001H166.20000000000002V-87.2L163.8 -92.60000000000001Q169.4 -101.4 179.0 -106.30000000000001Q188.60000000000002 -111.2 201.2 -111.2Q216.60000000000002 -111.2 229.0 -103.6Q241.4 -96.0 248.7 -83.2Q256.0 -70.4 256.0 -54.400000000000006Q256.0 -38.6 248.8 -25.6Q241.60000000000002 -12.600000000000001 229.20000000000002 -5.1000000000000005Q216.8 2.4000000000000004 201.0 2.4000000000000004Q189.20000000000002 2.4000000000000004 179.3 -2.3Q169.4 -7.0 163.60000000000002 -15.8L167.8 -21.0V40.0ZM198.0 -21.6Q207.0 -21.6 214.0 -25.8Q221.0 -30.0 224.9 -37.400000000000006Q228.8 -44.800000000000004 228.8 -54.400000000000006Q228.8 -64.0 224.9 -71.30000000000001Q221.0 -78.60000000000001 214.0 -82.9Q207.0 -87.2 198.0 -87.2Q189.4 -87.2 182.5 -83.0Q175.60000000000002 -78.80000000000001 171.70000000000002 -71.30000000000001Q167.8 -63.800000000000004 167.8 -54.400000000000006Q167.8 -44.800000000000004 171.70000000000002 -37.400000000000006Q175.60000000000002 -30.0 182.5 -25.8Q189.4 -21.6 198.0 -21.6ZM276.0 0.0V-151.4H302.20000000000005V-87.4L298.6 -91.2Q302.40000000000003 -101.0 311.1 -106.1Q319.8 -111.2 331.40000000000003 -111.2Q343.40000000000003 -111.2 352.70000000000005 -106.0Q362.0 -100.80000000000001 367.20000000000005 -91.5Q372.40000000000003 -82.2 372.40000000000003 -70.0V0.0H346.20000000000005V-63.800000000000004Q346.20000000000005 -71.0 343.40000000000003 -76.2Q340.6 -81.4 335.70000000000005 -84.30000000000001Q330.8 -87.2 324.20000000000005 -87.2Q317.8 -87.2 312.8 -84.30000000000001Q307.8 -81.4 305.0 -76.2Q302.20000000000005 -71.0 302.20000000000005 -63.800000000000004V0.0ZM446.20000000000005 2.4000000000000004Q429.40000000000003 2.4000000000000004 416.80000000000007 -5.2Q404.20000000000005 -12.8 397.20000000000005 -25.800000000000004Q390.20000000000005 -38.800000000000004 390.20000000000005 -54.6Q390.20000000000005 -71.0 397.30000000000007 -83.7Q404.40000000000003 -96.4 416.70000000000005 -103.80000000000001Q429.00000000000006 -111.2 444.20000000000005 -111.2Q457.00000000000006 -111.2 466.70000000000005 -107.0Q476.40000000000003 -102.80000000000001 483.20000000000005 -95.4Q490.00000000000006 -88.0 493.6 -78.5Q497.20000000000005 -69.0 497.20000000000005 -58.0Q497.20000000000005 -55.2 496.90000000000003 -52.2Q496.6 -49.2 495.80000000000007 -47.0H411.8V-67.0H481.00000000000006L468.6 -57.6Q470.40000000000003 -66.8 467.70000000000005 -74.0Q465.00000000000006 -81.2 458.9000000000001 -85.4Q452.80000000000007 -89.60000000000001 444.20000000000005 -89.60000000000001Q436.00000000000006 -89.60000000000001 429.6 -85.5Q423.20000000000005 -81.4 419.90000000000003 -73.5Q416.6 -65.60000000000001 417.40000000000003 -54.400000000000006Q416.6 -44.400000000000006 420.1 -36.7Q423.6 -29.0 430.5 -24.8Q437.40000000000003 -20.6 446.40000000000003 -20.6Q455.40000000000003 -20.6 461.70000000000005 -24.400000000000002Q468.00000000000006 -28.200000000000003 471.6 -34.6L492.80000000000007 -24.200000000000003Q489.6 -16.400000000000002 482.80000000000007 -10.400000000000002Q476.00000000000006 -4.4 466.70000000000005 -1.0Q457.40000000000003 2.4000000000000004 446.20000000000005 2.4000000000000004ZM517.0 0.0V-108.80000000000001H541.6V-84.60000000000001L539.6 -88.2Q543.4 -100.4 551.5 -105.2Q559.6 -110.0 571.0 -110.0H577.4V-86.80000000000001H568.0Q556.8 -86.80000000000001 550.0 -79.9Q543.2 -73.0 543.2 -60.6V0.0ZM643.4 2.4000000000000004Q626.6 2.4000000000000004 614.0 -5.2Q601.4 -12.8 594.4 -25.800000000000004Q587.4 -38.800000000000004 587.4 -54.6Q587.4 -71.0 594.5 -83.7Q601.6 -96.4 613.9000000000001 -103.80000000000001Q626.2 -111.2 641.4 -111.2Q654.2 -111.2 663.9000000000001 -107.0Q673.6 -102.80000000000001 680.4000000000001 -95.4Q687.2 -88.0 690.8000000000001 -78.5Q694.4000000000001 -69.0 694.4000000000001 -58.0Q694.4000000000001 -55.2 694.1000000000001 -52.2Q693.8000000000001 -49.2 693.0 -47.0H609.0V-67.0H678.2L665.8000000000001 -57.6Q667.6 -66.8 664.9000000000001 -74.0Q662.2 -81.2 656.1 -85.4Q650.0 -89.60000000000001 641.4 -89.60000000000001Q633.2 -89.60000000000001 626.8 -85.5Q620.4 -81.4 617.1 -73.5Q613.8000000000001 -65.60000000000001 614.6 -54.400000000000006Q613.8000000000001 -44.400000000000006 617.3000000000001 -36.7Q620.8000000000001 -29.0 627.7 -24.8Q634.6 -20.6 643.6 -20.6Q652.6 -20.6 658.9000000000001 -24.400000000000002Q665.2 -28.200000000000003 668.8000000000001 -34.6L690.0 -24.200000000000003Q686.8000000000001 -16.400000000000002 680.0 -10.400000000000002Q673.2 -4.4 663.9000000000001 -1.0Q654.6 2.4000000000000004 643.4 2.4000000000000004Z"/></g>
</svg>