<svg xmlns="http://www.w3.org/2000/svg" viewBox="0 0 175 35.97" width="175" height="35.97" font-family="Plus Jakarta Sans, sans-serif">
	<defs>
		<linearGradient id="tsg" gradientUnits="userSpaceOnUse" x1="5.8439" y1="2.0363" x2="28.9928" y2="34.0734">
			<stop offset="0" stop-color="#38EF7D"/>
			<stop offset="1" stop-color="#11998E"/>
		</linearGradient>
		<linearGradient id="tsgText" gradientUnits="userSpaceOnUse" x1="91.8337" y1="9.0257" x2="173.0000" y2="31.6520">
			<stop offset="0" stop-color="#38EF7D"/>
			<stop offset="1" stop-color="#11998E"/>
		</linearGradient>
	</defs>
	<g fill-rule="evenodd">
		<path d="M 35.55885226250938,16.29597391069686 A 14.58730773536165,14.58730773536165 0.0 1,0 9.846487803607369,26.019058074009607 A 22.151345217622556,22.151345217622556 0.0 0,0 14.639651880254236,25.961406030570217 A 10.998579760026049,10.998579760026049 0.0 1,1 31.898617876706325,19.325611139190013 A 28.676752087843617,28.676752087843617 0.0 0,0 35.55885226250938,16.29597391069686" fill="url(#tsg)"/>
		<path d="M 39.4371812002382,10.533897972215922 C 39.45461088778964,10.6326662016741 39.476956641060724,10.736350496851916 39.48902334782711,10.829755745525034 C 39.501536969658915,10.923607909263573 39.50824069564023,11.003605705974044 39.51181601616361,11.094776379320056 C 39.51494442162156,11.185947052666066 39.51494442162156,11.282927621862557 39.5095814408365,11.376779785601096 C 39.50421846005144,11.470631949339637 39.4930455834159,11.565377943209022 39.48008504651867,11.65923010694756 C 39.46712450962144,11.753082270686098 39.45014173713542,11.846487519359217 39.43092438932229,11.939445852966914 C 39.41170704150916,12.032404186574611 39.38891437317266,12.124915605116886 39.364780959639894,12.21698010859374 C 39.34064754610712,12.308597697005172 39.31427955724725,12.400215285416603 39.28567699306027,12.490939043697193 C 39.257521343938706,12.582109717043203 39.22713111949004,12.67238656025837 39.19405940464883,12.761769573342693 C 39.16143460487305,12.851152586427018 39.126128314704744,12.939641769380499 39.08948127934018,13.027237122203136 C 39.05283424397561,13.115279390091196 39.014399548349346,13.202427827848412 38.97462410752682,13.289129350540204 C 38.93440175163888,13.375383958166575 38.89328556562008,13.461191650727528 38.84993480427419,13.546105513157634 C 38.80658404292829,13.631019375587744 38.76099870625529,13.714592492821588 38.71451953945144,13.797718694990007 C 38.668040372647596,13.880844897158427 38.619773545582056,13.963077269196006 38.57150671851652,14.045309641233583 C 38.52279297638556,14.12709509820574 38.474079234254596,14.208880555177897 38.42357783186196,14.289772182019211 C 38.3726295144039,14.3702168937951 38.32034045174957,14.449767775440149 38.266710643898975,14.528871742019778 C 38.21352775111381,14.607528793533984 38.15811028300153,14.685292014917344 38.102692814889245,14.762608321235286 C 38.04727534677696,14.840371542618648 37.99096404853384,14.917240933871165 37.93420583522529,14.99366341005826 C 37.877447621916744,15.070532801310778 37.82024249354278,15.146508362432451 37.762143535037964,15.22248392355413 C 37.704491491598574,15.298012569610382 37.64594561802834,15.373541215666638 37.58695282939269,15.448176031592046 C 37.52751312569163,15.522810847517457 37.46762650692513,15.596998748377448 37.4072929730932,15.670292819106592 C 37.34651252419586,15.744033804901159 37.28483824516767,15.816880960564882 37.223163966139495,15.889281201163184 C 37.16104277204589,15.961234526696066 37.09802774782145,16.033187852228945 37.035012723597,16.10424734763098 C 36.97155078430713,16.17530684303302 36.907641929951836,16.246366338435056 36.843286160531115,16.31608508864083 C 36.77848347604498,16.386250753912023 36.712786961428,16.455075673986954 36.6466435317456,16.52390059406188 C 36.580500102063205,16.592725514136813 36.51346284224996,16.660209689015478 36.44642558243672,16.728140778959563 C 36.37938832262348,16.79607186890365 36.31235106281023,16.863556043782314 36.24486688793157,16.93104021866098 C 36.17738271305291,16.99852439353964 36.10989853817424,17.066008568418308 36.04196744823015,17.132598913166127 C 35.974036358286064,17.19963617297937 35.90610526834198,17.26667343279261 35.83728034826705,17.332369947409592 C 35.76845542819212,17.398513377091994 35.69918359305178,17.464209891708972 35.629464842846,17.529012576195104 C 35.559746092640225,17.59381526068124 35.48913351230361,17.657724115036533 35.418520931966995,17.721632969391823 C 35.34790835163038,17.785541823747113 35.27684885622834,17.849450678102404 35.20578936082631,17.91291261739228 C 35.13428295035885,17.975927641616725 35.062776539891395,18.038942665841176 34.99082321435851,18.1015107750002 C 34.918869888825625,18.163631969093803 34.84646964822733,18.225753163187413 34.77406940762902,18.287427442215595 C 34.7012222519653,18.34910172124378 34.628375096301575,18.410776000271962 34.55508102557243,18.471556449169302 C 34.48178695484328,18.53233689806664 34.40759905398329,18.592223516833137 34.33341115312331,18.652110135599635 C 34.25967016732874,18.711996754366133 34.18548226646875,18.77233028819805 34.111294365608764,18.832216906964547 C 34.037106464748774,18.89210352573104 33.96336547895421,18.95199014449754 33.88873066302879,19.011429848198617 C 33.8145427621688,19.07131646696511 33.7399079462434,19.130309255600768 33.66482621525256,19.18930204423642 C 33.58974448426173,19.247847917806652 33.51421583820547,19.305946876311463 33.4382402770838,19.364045834816274 C 33.36271163102754,19.421697878255664 33.286289154840446,19.479349921695054 33.21031359371877,19.536108135003598 C 33.133891117531675,19.593313263377564 33.057468641344585,19.650518391751532 32.98059925009206,19.706829689994656 C 32.90372985883955,19.76314098823778 32.82641355252161,19.819005371415482 32.74909724620366,19.874869754593185 C 32.67178093988572,19.930734137770887 32.59401771850236,19.98615160588317 32.51670141218442,20.04156907399545 C 32.43893819080105,20.096986542107732 32.361621884483114,20.15240401022001 32.28385866309976,20.207374563266868 C 32.20609544171639,20.26279203137915 32.12833222033303,20.31820949949143 32.050122083884254,20.372733137472867 C 31.97235886250089,20.427256775454307 31.89370181098669,20.481780413435743 31.81504475947248,20.53541022128634 C 31.736387707958276,20.589486944202356 31.657283741378652,20.64266983698753 31.578179774799025,20.6958527297727 C 31.499075808219402,20.749035622557873 31.41952492657435,20.801771600277625 31.3399740449293,20.854507577997374 C 31.26042316328425,20.906796640651706 31.181319196704628,20.95953261837145 31.101321399994156,21.011374765960362 C 31.021323603283687,21.063663828614693 30.94132580657322,21.11505906113818 30.8604341797319,21.16600737859624 C 30.77998946795601,21.216955696054306 30.699097841114696,21.26745709844695 30.617759299207965,21.317511585774174 C 30.536867672366647,21.367566073101393 30.45552913045992,21.417173645363192 30.37374367348776,21.46678121762499 C 30.292405131581027,21.515941874821372 30.210172759543447,21.564208701886905 30.12838730257129,21.612922444017862 C 30.046154930533714,21.661636186148822 29.96436947356156,21.709903013214355 29.882137101523977,21.75861675534531 C 29.7999047294864,21.806883582410844 29.718119272514247,21.856044239607222 29.635886900476667,21.904311066672758 C 29.553654528439086,21.95213097867287 29.471422156401513,22.000397805738405 29.38874286929851,22.047770802673096 C 29.30651049726093,22.095590714673207 29.22338429509251,22.1429637116079 29.140705007989514,22.189889793477175 C 29.05757880582109,22.236815875346444 28.97489951871809,22.283295042150293 28.891326401484246,22.32977420895414 C 28.807753284250406,22.375806460692566 28.72418016701656,22.421391797365576 28.640607049782723,22.466977134038576 C 28.55658701748346,22.512115555646158 28.472566985184194,22.55725397725374 28.388546952884926,22.602392398861326 C 28.304526920585662,22.647083905403488 28.220059973220977,22.691328496880228 28.135146110790874,22.735126173291548 C 28.050679163426185,22.778923849702867 27.965765300996075,22.82182769598334 27.880404523500545,22.86517845732924 C 27.79549066107044,22.908082303609714 27.710129883574904,22.950986149890188 27.624769106079377,22.993443081105244 C 27.539408328583846,23.035900012320297 27.454047551088323,23.07835694353535 27.36868677359279,23.120813874750404 C 27.283325996097258,23.162823890900036 27.19751830353631,23.204833907049668 27.111710610975358,23.24639700813388 C 27.02590291841441,23.28796010921809 26.94009522585346,23.32907629523688 26.853840618227085,23.369745566190247 C 26.767586010600713,23.410414837143616 26.681331402974337,23.450637193031557 26.59462988028255,23.491306463984927 C 26.508375272656174,23.53152881987287 26.4221206650298,23.572198090826237 26.335866057403425,23.612420446714186 C 26.249164534711635,23.652642802602134 26.16290992708526,23.692418243424655 26.07576148932805,23.73174676918176 C 25.989059966636255,23.771075294938864 25.90191152887904,23.809956905630543 25.814763091121822,23.848391601256804 C 25.72761465336461,23.88682629688306 25.64001930054197,23.9248140774439 25.55242394771933,23.961908027873893 C 25.464828594896694,23.999001978303887 25.376786327008634,24.03564901366846 25.288744059120575,24.072296049033035 C 25.200701791232515,24.108496169332188 25.112212608279034,24.144696289631337 25.024170340390977,24.180896409930487 C 24.935681157437497,24.21709653022964 24.847638889549437,24.25374356559421 24.75959662166138,24.28949677082794 C 24.6711074387079,24.325696891127095 24.58306517081984,24.36145009636082 24.494129072800938,24.39630947146371 C 24.405639889847457,24.431168846566596 24.316703791828555,24.465134391538637 24.227320778744232,24.49909993651068 C 24.13838468072533,24.533065481482726 24.049001667641004,24.566584111389346 23.960065569622103,24.600102741295967 C 23.87068255653778,24.633621371202587 23.781299543453454,24.667140001109207 23.69191653036913,24.70021171595041 C 23.602533517284808,24.733283430791605 23.513597419265903,24.766355145632808 23.42376749111616,24.798979945408586 C 23.334384478031836,24.831604745184364 23.24455454988209,24.863782629894725 23.154724621732345,24.895513599539655 C 23.064894693582602,24.92724456918459 22.974617850367434,24.958975538829527 22.884787922217683,24.99070650847446 C 22.79495799406794,25.021990563053976 22.705128065918192,25.054168447764333 22.61529813776845,25.085899417409262 C 22.525021294553284,25.117183471988778 22.435191366403537,25.148914441633714 22.344914523188372,25.179304666082384 C 22.254637679973207,25.209694890531058 22.163913921692615,25.239191284848882 22.073190163412026,25.268240764101286 C 21.982466405131436,25.29729024335369 21.891295731785426,25.325445892475248 21.800125058439416,25.353601541596817 C 21.70940130015883,25.3822041057838 21.618230626812817,25.410806669970786 21.527059953466807,25.438962319092344 C 21.43633619518622,25.467564883279326 21.345165521840208,25.496167447466306 21.253994848494198,25.52387618152245 C 21.16327109021361,25.55203183064401 21.071653501802174,25.579740564700153 20.980482828456168,25.607002383690876 C 20.889312155110154,25.634264202681596 20.797694566698727,25.661079106606888 20.706076978287292,25.687894010532187 C 20.61445938987586,25.714261999392065 20.52284180146443,25.740629988251943 20.431224213052996,25.76655106204639 C 20.33960662464156,25.792919050906267 20.24798903623013,25.818393209635293 20.15592453275328,25.843867368364332 C 20.063860029276423,25.868894612027944 19.97179552579957,25.893028025560714 19.879284107257295,25.917161439093473 C 19.78721960378044,25.941741767691664 19.694708185238166,25.965428266159012 19.602643681761315,25.98956167969178 C 19.51057917828446,26.013695093224545 19.418514674807607,26.03872233688816 19.32645017133075,26.062855750420926 C 19.23393875278848,26.0869891639537 19.141874249311623,26.111569492551883 19.04936283076935,26.134809075953804 C 18.956851412227078,26.157601744290307 18.8643399936848,26.17994749756139 18.771828575142525,26.201399420701623 C 18.67887024153483,26.223298258907285 18.58591190792713,26.24385635191668 18.492953574319436,26.26441444492607 C 18.399995240711743,26.28541945300089 18.30703690710404,26.305977546010286 18.214078573496344,26.326535639019674 C 18.12112023988865,26.346646816963652 18.02816190628095,26.367204909973047 17.935203572673256,26.38731608791702 C 17.84224523906556,26.406980350795575 17.74883999039244,26.4261976986087 17.65588165678474,26.44496813135641 C 17.56247640811162,26.464185479169537 17.469071159438503,26.482955911917244 17.375665910765388,26.50083251453411 C 17.28226066209227,26.519156032216394 17.18885541341915,26.53703263483326 17.09545016474603,26.554015407319284 C 17.002044916072908,26.571445094870725 16.908192752334372,26.587534037225904 16.81434058859583,26.603622979581083 C 16.72093533992271,26.61971192193626 16.627083176184172,26.63535394922602 16.533231012445633,26.650549061450352 C 16.439378848707094,26.66574417367469 16.345526684968554,26.680939285899026 16.25122760616459,26.695240567992514 C 16.15737544242605,26.70954185008601 16.063523278687512,26.723396217114075 15.969224199883552,26.73680366907673 C 15.875372036145011,26.750658036104795 15.781072957341047,26.76406548806745 15.687220793602512,26.777472940030094 C 15.59292171479855,26.790880391992747 15.498622635994586,26.803840928889972 15.404770472256045,26.816354550721776 C 15.310471393452085,26.829315087619 15.216172314648123,26.841381794385388 15.121873235844163,26.85255467102093 C 15.0275741570402,26.864174462721888 14.93327507823624,26.87445350922659 14.838975999432277,26.88473255573128 C 14.744676920628315,26.89501160223598 14.64993092675893,26.90394990354441 14.555631847954968,26.913782034983686 C 14.460885854085587,26.923167251357537 14.366586775281625,26.932552467731394 14.27184078141224,26.94149076903983 C 14.177541702608279,26.95042907034826 14.082795708738894,26.959367371656697 13.988496629934932,26.966964927768863 C 13.89375063606555,26.975009398946458 13.799004642196168,26.9821600399932 13.704258648326785,26.98931068103994 C 13.609512654457403,26.996014407021264 13.514766660588018,27.003611963133434 13.420020666718635,27.009868774049338 C 13.325274672849252,27.01567866989982 13.230081763914447,27.020147820554037 13.135335770045065,27.02461697120825 C 13.040142861110262,27.029533036927887 12.945396867240877,27.033108357451262 12.850203958306071,27.03847133823632 C 12.755011049371268,27.043387403955958 12.660265055501883,27.050538045002703 12.5655190616325,27.05545411072234 C 12.470326152697696,27.060370176441978 12.37513324376289,27.064839327096195 12.279940334828085,27.067520817488724 C 12.184747425893281,27.07020230788126 12.089554516958476,27.07154305307752 11.99391469295825,27.07198996814294 C 11.898721784023444,27.072883798273782 11.803528875088638,27.072883798273782 11.707889051088413,27.07198996814294 C 11.61269614215361,27.0710961380121 11.517503233218804,27.069308477750404 11.422310324283998,27.066180072292457 C 11.327117415349194,27.063051666834504 11.231924506414389,27.058135601114863 11.136731597479583,27.052772620329808 C 11.0419856036102,27.047856554610178 10.946792694675395,27.04115282862885 10.852046700806012,27.03623676290921 C 10.756853791871208,27.030873782124154 10.662107798001824,27.0277453766662 10.56691488906702,27.02282931094656 C 10.472168895197637,27.01791324522692 10.376975986262831,27.01299717950728 10.282229992393447,27.00629345352596 C 10.187483998524064,26.999589727544635 10.092738004654679,26.991098341301623 9.998438925850719,26.982606955058618 C 9.903692931981334,26.974115568815606 9.809393853177372,26.965177267507176 9.714647859307991,26.955345136067898 C 9.620348780504028,26.94551300462862 9.526049701700067,26.93523395812392 9.431750622896105,26.924061081488382 C 9.337451544092145,26.912441289787424 9.243152465288183,26.90037458302104 9.148853386484221,26.887414046123816 C 9.05500122274568,26.87445350922659 8.960702143941718,26.86059914219852 8.86684998020318,26.846297860105018 C 8.77299781646464,26.83154966294611 8.679145652726099,26.81635455072177 8.58529348898756,26.799818693301173 C 8.491888240314442,26.783282835880573 8.398482991641322,26.766300063394553 8.305077742968203,26.74797654571227 C 8.211672494295085,26.729653028029986 8.11871416068739,26.71043568021685 8.02575582707969,26.689877587207455 C 7.932797493471994,26.669319494198064 7.840286074929719,26.647420655992406 7.747774656387444,26.624181072590478 C 7.655263237845169,26.600941489188553 7.563645649433737,26.576361160590363 7.471581145956883,26.550887001861337 C 7.379963557545451,26.524965928066884 7.288345969134019,26.49815102414158 7.19717529578801,26.47088920515086 C 7.106004622442,26.44362738616014 7.014833949095989,26.41547173703858 6.9241101908154,26.385975342720755 C 6.833833347600232,26.35692586346835 6.743109589319644,26.327429469150527 6.653279661169899,26.29569849950559 C 6.563449733020154,26.263967529860654 6.47406671993583,26.231342730084876 6.385577536982349,26.19648335498199 C 6.297088354028868,26.161623979879103 6.209046086140809,26.124530029449108 6.1223445634490155,26.086095333822847 C 6.035196125691799,26.04766063819659 5.948494603000006,26.006991367243224 5.863133825504476,25.965428266159012 C 5.777326132943525,25.923865165074798 5.692412270513417,25.88096131879433 5.608392238214154,25.835822897186745 C 5.52481912098031,25.79068447557916 5.441692918811889,25.74375839370989 5.360354376905155,25.69459773651351 C 5.27901583499842,25.645437079317137 5.1985711232225285,25.594041846793644 5.1199140717083225,25.540412038943053 C 5.041257020194118,25.486782231092455 4.963493798810756,25.431364762980174 4.888858982885346,25.37326580447537 C 4.813777251894514,25.314719930905138 4.74093009623079,25.253492566942374 4.669870600828753,25.190030627652504 C 4.599258020492138,25.126568688362635 4.530433100417208,25.060425258680237 4.463842755669386,24.992494168736147 C 4.397252410921565,24.924563078792055 4.332002811370009,24.854844328586285 4.270775447407247,24.782444087987987 C 4.209994998509907,24.71004384738968 4.151002209874253,24.634962116398853 4.096925486958237,24.55719889501549 C 4.042848764042221,24.47943567363213 3.9923473616495784,24.398544046790814 3.9463151099111515,24.315864759687813 C 3.899835943107303,24.23318547258481 3.8573790118922493,24.147824695089284 3.8193912313314113,24.061123172397494 C 3.7818503658359957,23.97397473464028 3.7483317359293746,23.885038636621374 3.719282256676969,23.794761793406206 C 3.690232777424564,23.70448495019104 3.665652448826375,23.612420446714186 3.6455412708824015,23.519909028171913 C 3.625430092938429,23.42739760962964 3.6084473204524077,23.333545445891097 3.59816827394771,23.240140197217976 C 3.5874423123775916,23.146288033479433 3.5825262466579537,23.051988954675473 3.583420076788797,22.957689875871516 C 3.5847608219850615,22.863390797067552 3.593699123293494,22.769091718263592 3.6053189149944562,22.67523955452505 C 3.616491791629997,22.581387390786507 3.632580733985175,22.487535227047967 3.6509042516674617,22.394576893440274 C 3.669674684415169,22.30161855983258 3.691126607555407,22.20866022622488 3.715706936153596,22.117042637813448 C 3.7407341798172062,22.025425049402013 3.7688898289387684,21.934254376056007 3.799280053387439,21.84442444790626 C 3.829670277836109,21.754147604691095 3.863635822808152,21.66521150667219 3.89894211297646,21.57672232371871 C 3.9346953182101894,21.488680055830653 3.9731300138364487,21.401084703008014 4.012905454658973,21.314830095381645 C 4.052233980416075,21.22812857268985 4.094243996565707,21.1423208801289 4.137594757911605,21.05740701769879 C 4.1804986041920795,20.972493155268683 4.22474319566882,20.888026207903998 4.271222362472669,20.804900005735576 C 4.3172546142110955,20.721773803567153 4.36552144127663,20.639094516464155 4.41512901353843,20.55775597455742 C 4.46473658580023,20.47686434771611 4.516131818323716,20.396419635940216 4.568867796043467,20.31731566936059 C 4.621603773763217,20.23776478771554 4.676127411744655,20.159554651266756 4.731544879856936,20.082238344948816 C 4.787409263034638,20.004922038630877 4.844614391408606,19.92849956244378 4.902713349913417,19.853417831452948 C 4.961259223483649,19.777889185396695 5.021145842250146,19.703701284536706 5.081926291147486,19.630854128872983 C 5.143153655110248,19.55756005814384 5.206168679334696,19.485606732610957 5.269630618624566,19.41499415227434 C 5.332645642849013,19.344381571937724 5.4005767327931,19.27376899160111 5.462251011821284,19.206731731787865 C 5.524372205914889,19.140141387040043 5.594984786251505,19.06505965604921 5.641463953055353,19.014558253656567 C 5.68749620479378,18.963609936198505 5.729506220943411,18.937241947338627 5.758019402117312,18.90238257223574 A 15.391754853120565,15.391754853120565 0.0 0,1 5.6623795781170845,18.14933068700031 C 5.590515635597288,18.208323475635964 5.503814112905494,18.267763179337045 5.428732381914663,18.325415222776428 C 5.354097565989252,18.383067266215818 5.291976371895647,18.435356328870146 5.222257621689875,18.495242947636648 C 5.152538871484102,18.555129566403146 5.080138630885799,18.620379165954702 5.010419880680027,18.685181850440834 C 4.941148045539676,18.74953761986155 4.872770040530169,18.81657487967479 4.804392035520661,18.883165224422612 C 4.736014030511153,18.949755569170435 4.668529855632489,19.01679282898368 4.601045680753824,19.08427700386234 C 4.533561505875159,19.151761178741005 4.466524246061916,19.219245353619666 4.399933901314095,19.28762335862918 C 4.333343556566273,19.356001363638686 4.266753211818452,19.423932453582776 4.201503612266896,19.493651203788545 C 4.13625401271534,19.562923038928894 4.071898243294626,19.63308870420009 4.008436304004757,19.704148199602127 C 3.944974364714887,19.775207695004163 3.8824062555558605,19.847161020537044 3.8211788915930978,19.920008176200767 C 3.759504612564915,19.99285533186449 3.699171078732996,20.06659631765906 3.639731375031921,20.14123113358447 C 3.580738586396267,20.21586594950988 3.522192712826035,20.291394595566132 3.465434499517489,20.36737015668781 C 3.4082293711435216,20.443792632874906 3.3523649879658195,20.521108939192846 3.297841349984382,20.59931907564163 C 3.243317712002945,20.677529212090413 3.1896879041523505,20.756186263604622 3.1373988414980207,20.836184060315087 C 3.085109778843691,20.91573494196014 3.033714546320205,20.99617965373603 2.983660058992984,21.077071280577343 C 2.9336055716657623,21.157962907418653 2.884891829534806,21.240195279456234 2.8370719175346926,21.322427651493808 C 2.789698920600001,21.40510693859681 2.7436666688615743,21.488680055830653 2.6985282472539907,21.572700088129917 C 2.653836740711829,21.65672012042918 2.610485979365932,21.741633982859287 2.5684759632162995,21.82699476035482 C 2.5264659470666673,21.91280245291577 2.4857966761133,21.998610145476718 2.446915065421619,22.085758583233936 C 2.4080334547299382,22.17290702099115 2.370939504299944,22.260502373813786 2.335633214131636,22.348991556767267 C 2.300326923963328,22.437480739720748 2.2668082940567067,22.526416837739646 2.235971154542615,22.61669368095482 C 2.205134015028523,22.706523609104565 2.1765314508415394,22.797247367385154 2.1506103770470855,22.888864955796585 C 2.1251362183180533,22.98048254420802 2.101896634916129,23.07254704768487 2.0826792871029998,23.165505381292565 C 2.06346193928987,23.25846371490026 2.0473729969346914,23.35186896357338 2.035306290168308,23.446168042377344 C 2.0227926683365025,23.540020206115884 2.014301282093492,23.63476619998527 2.0080444711775893,23.72951219385465 C 2.0022345753271082,23.824258187724034 2.0,23.919898011724257 2.0,24.01464400559364 C 2.0,24.109836914528447 2.0026814903925296,24.20502982346325 2.009385216373854,24.299775817332637 C 2.016088942355178,24.394521811202022 2.025474158729032,24.489267805071403 2.039775440822524,24.583119968809946 C 2.0540767229160157,24.67652521748306 2.072400240598302,24.769930466156183 2.0951929089348047,24.861994969633034 C 2.117538662205886,24.95405947310989 2.1448004811966044,25.0452301464559 2.175190705645275,25.13506007460564 C 2.205580930093945,25.224890002755387 2.2399933901314095,25.31382610077429 2.277087340561404,25.40142145359693 C 2.3137343759259767,25.48946372148499 2.3539567318139225,25.57571832911136 2.396413663028976,25.661079106606884 C 2.43887059424403,25.745992969036994 2.4840090158516137,25.830013001336262 2.531828927851727,25.91224537337384 C 2.5796488398518402,25.99447774541142 2.6305971573099045,26.07492245718731 2.683333135029656,26.154026423766936 C 2.736069112749407,26.23313039034656 2.7919334959271094,26.3104466966645 2.8491386243010766,26.386422257786172 C 2.9063437526750437,26.46239781890785 2.965783456376119,26.536585719767835 3.027010820338881,26.609432875431565 C 3.088238184301643,26.68228003109529 3.151253208526091,26.753786441562745 3.216949723143069,26.823058276703097 C 3.282199322694625,26.891883196778032 3.3496834975732903,26.959367371656693 3.418955332713641,27.024170056142825 C 3.4886740829194136,27.088972740628964 3.5606274084522944,27.151093934722564 3.63392147918144,27.21232129868533 C 3.707215549910585,27.27310174758267 3.7822972809014175,27.331647621152896 3.8578259269576707,27.38974657965771 C 3.9338014880793466,27.447398623097097 4.0102239642664435,27.50370992134022 4.088434100715227,27.55868047438708 C 4.166197322098588,27.61320411236852 4.245301288678215,27.66638700515369 4.325746000454106,27.717782237677177 C 4.405743797164575,27.768730555135246 4.487529254136732,27.818338127397045 4.56976162617431,27.866158039397156 C 4.651993998211888,27.914424866462696 4.735120200380309,27.960457118201116 4.819140232679573,28.005595539808702 C 4.903160264978838,28.050287046350864 4.988074127408946,28.093637807696762 5.073881819969897,28.135647823846394 C 5.159242597465426,28.177657839996026 5.245497205091799,28.218327110949396 5.3321987277835925,28.257655636706495 C 5.418900250475387,28.297431077529016 5.506048688232602,28.335865773155277 5.59364404105524,28.373406638650692 C 5.681239393877878,28.410500589080684 5.769728576831358,28.44670070937984 5.858217759784838,28.482006999548148 C 5.946706942738318,28.517313289716462 6.035643040757221,28.5512788346885 6.125026053841545,28.58479746459512 C 6.214409066925869,28.617869179436322 6.303792080010192,28.650940894277518 6.393622008159938,28.68177803379161 C 6.4838988513751055,28.712615173305704 6.574622609655695,28.741664652558107 6.665793283001704,28.76937338661425 C 6.756517041282293,28.797529035735813 6.8485815447591465,28.823003194464842 6.940199133170578,28.8489242682593 C 7.03181672158201,28.874845342053753 7.123881225058864,28.900319500782786 7.215945728535718,28.92445291431555 C 7.308010232012571,28.948586327848325 7.400521650554847,28.972272826315667 7.493033069097121,28.994618579586746 C 7.585544487639397,29.016517417792407 7.678502821247093,29.037522425867223 7.77146115485479,29.058080518876615 C 7.864419488462487,29.078191696820593 7.957377822070183,29.097409044633718 8.050783070743302,29.115732562316005 C 8.14418831941642,29.134056079998288 8.237593568089538,29.15148576754973 8.33144573182808,29.168021624970333 C 8.70149140599718,29.23327122452189 9.071537080166282,29.316397426690315 9.441582754335382,29.397735968597043 C 9.415214765475506,29.49426962272811 9.390634436877317,29.596613172709663 9.362925702821176,29.686890015924835 C 9.335216968765035,29.77716685914 9.30616748951263,29.85269550519626 9.27577726506396,29.93939702788805 C 9.244940125549867,30.026098550579842 9.211421495643245,30.117716138991273 9.17924361093289,30.207099152075596 C 9.146618811157113,30.296929080225343 9.113994011381335,30.386312093309662 9.081369211605555,30.47614202145941 C 9.048744411829778,30.565525034543732 9.016119612053998,30.655354962693476 8.983494812278222,30.744737975777806 C 8.950870012502444,30.834567903927553 8.918692127792088,30.923950917011872 8.885620412950887,31.0133339300962 C 8.852995613175109,31.103163858245946 8.82037081339933,31.192546871330265 8.787299098558131,31.281929884414595 C 8.75378046865151,31.371312897498917 8.720261838744888,31.46024899551782 8.686296293772845,31.549632008602142 C 8.65188383373538,31.638568106621044 8.617024458632494,31.727057289574525 8.582611998595029,31.815993387593426 C 8.547752623492142,31.904929485612328 8.512893248389256,31.99341866856581 8.478480788351792,32.082354766584714 C 8.443621413248906,32.17129086460361 8.409655868276863,32.26022696262252 8.375690323304818,32.34916306064142 C 8.341277863267353,32.438099158660314 8.30686540322989,32.52703525667922 8.272452943192427,32.615971354698125 C 8.238487398220384,32.70490745271702 8.203181108052075,32.79384355073593 8.169662478145453,32.882779648754834 C 8.136590763304254,32.97171574677373 8.098602982743417,33.06646174064311 8.07223499388354,33.15048177294238 C 8.045420089958242,33.23450180524164 8.02262742162174,33.32477864845681 8.010560714855355,33.38600601241957 C 7.998494008088972,33.44768029144775 7.998494008088972,33.47583594056932 7.9998347532852385,33.51873978684979 C 8.000728583416082,33.56209054819569 8.00564464913572,33.60544130954158 8.016370610705838,33.64521675036411 C 8.027096572275957,33.68499219118664 8.043185514631135,33.72387380187832 8.064190522705951,33.758286261915785 C 8.085195530780767,33.79269872195324 8.112457349771486,33.82442969159818 8.142847574220156,33.85079768045806 C 8.173684713734247,33.87716566931793 8.209437918967977,33.899511422589015 8.247425699528813,33.91694111014046 C 8.284966565024229,33.934370797691905 8.327423496239282,33.94688441952372 8.369880427454339,33.955375805766714 C 8.412337358669392,33.96431410707515 8.434236196875053,33.97101783305647 8.502614201884558,33.96878325772936 C 8.571439121959488,33.96699559746768 8.68763703896911,33.95805729615925 8.780148457511386,33.94330909900033 C 8.87265987605366,33.928113986776 8.966065124726779,33.90442748830865 9.05768271313821,33.879847159710465 C 9.149747216615063,33.855266831112274 9.240470974895652,33.82621735185987 9.33074781811082,33.7958271274112 C 9.421024661325987,33.765436902962534 9.509513844279468,33.73102444292506 9.59844994229837,33.69705889795303 C 9.687832955382694,33.66309335298098 9.775875223270752,33.62689323268183 9.864811321289656,33.592480772644365 C 9.953300504243137,33.557621397541475 10.042236602262038,33.52365585256943 10.13117270028094,33.48969030759739 C 10.220108798299842,33.45527784755993 10.309491811384166,33.4217592176533 10.398427909403068,33.38734675761584 C 10.48736400742197,33.352487382512955 10.575853190375451,33.31762800741007 10.664342373328932,33.28232171724176 C 10.752831556282413,33.24701542707344 10.84087382417047,33.2108153067743 10.929363007123952,33.17506210154057 C 11.017852190077432,33.139308896306844 11.106341373030913,33.104002606138536 11.194830555984392,33.06869631597022 C 11.283319738937873,33.0329431107365 11.371808921891354,32.99808373563361 11.459851189779414,32.96188361533446 C 11.547893457667474,32.92568349503531 11.635935725555532,32.889036459670734 11.72353107837817,32.85194250924074 C 11.81157334626623,32.814848558810745 11.898721784023444,32.776860778249905 11.98631713684608,32.73931991275449 C 12.073912489668718,32.701332132193656 12.161060927425932,32.6628974365674 12.24820936518315,32.624462740941134 C 12.335357802940365,32.586028045314876 12.422506240697583,32.547146434623194 12.509654678454798,32.508711738996936 C 12.596803116212012,32.469830128305254 12.683504638903807,32.43094851761357 12.770653076661024,32.392513821987315 C 12.857801514418238,32.35363221129563 12.944949952175456,32.31475060060395 13.03209838993267,32.27586898991227 C 13.118799912624466,32.236987379220594 13.20594835038168,32.198105768528904 13.292649873073476,32.15833032770639 C 13.379351395765267,32.118554886883864 13.465606003391642,32.07877944606134 13.552307526083434,32.03811017510797 C 13.638562133709808,31.997887819220026 13.724369826270758,31.95632471813581 13.810624433897132,31.91610236224787 C 13.896879041523507,31.8754330912945 13.983133649149874,31.83521073540656 14.069835171841671,31.79454146445319 C 14.156089779468042,31.75387219349982 14.242344387094413,31.71364983761188 14.328152079655366,31.672533651593085 C 14.41440668728174,31.631864380639716 14.500661294908111,31.590301279555508 14.586468987469061,31.549185093536718 C 14.67182976496459,31.50762199245251 14.759425117787227,31.465165061237453 14.842551319955648,31.42449579028409 C 14.926124437189491,31.38382651933072 15.014166705077551,31.339581927853985 15.08612003061043,31.304722552751098 C 15.158520271208733,31.270310092713633 15.225557531021977,31.2385791230687 15.276058933414621,31.216680284863035 C 15.327007250872686,31.194781446657373 15.352928324667142,31.18763080561063 15.391363020293399,31.17288260845172 C 15.484768268966517,31.210423473947138 15.583983413490117,31.249305084638817 15.672025681378175,31.285058289872545 C 15.760067949266235,31.32081149510627 15.834255850126222,31.35254246475121 15.919616627621751,31.38695492478867 C 16.004977405117277,31.42181429989156 16.09570116339787,31.45801442019071 16.184190346351347,31.492873795293598 C 16.27267952930483,31.52728625533106 16.36206254238915,31.561698715368532 16.450998640408056,31.595217345275152 C 16.54038165349238,31.629182890247197 16.629764666576705,31.662254605088393 16.71959459472645,31.694432489798746 C 16.80897760781077,31.7266103745091 16.899254451025936,31.75789442908862 16.989531294241107,31.787837738471865 C 17.080255052521693,31.817781047855114 17.170978810802286,31.846383612042096 17.262149484148292,31.874092346098237 C 17.353320157494306,31.90180108015438 17.444937745905737,31.927722153948835 17.537002249382592,31.953196312677864 C 17.628619837794023,31.979117386472314 17.72068434127088,32.004144630135926 17.81274884474773,32.02872495873412 C 17.904813348224582,32.05330528733231 17.996877851701434,32.07743870086507 18.089389270243714,32.10112519933242 C 18.181900688785987,32.12436478273435 18.273965192262843,32.147157451070846 18.36692352587054,32.16860937421109 C 18.459434944412813,32.19006129735132 18.552840193085935,32.2101724752953 18.64579852669363,32.22938982310843 C 18.739203775366747,32.24860717092156 18.832609024039865,32.26648377353842 18.926014272712983,32.28346654602444 C 19.019419521386105,32.300896233575884 19.11282477005922,32.31743209099648 19.206676933797763,32.33307411828624 C 19.3005290975363,32.348716145576 19.39438126127484,32.36301742766949 19.4886803400788,32.375977964566715 C 19.58253250381734,32.389385416529365 19.676831582621304,32.40145212329575 19.771130661425268,32.413071914996706 C 19.865429740229228,32.424691706697665 19.95972881903319,32.43586458333321 20.054474812902573,32.44524979970707 C 20.148773891706536,32.45463501608092 20.243519885575918,32.46267948725851 20.338712794510723,32.46938321323984 C 20.433458788380108,32.47608693922116 20.52865169731491,32.48055608987538 20.623844606249715,32.48591907066043 C 20.71903751518452,32.49083513638007 20.814230424119323,32.49619811716513 20.90942333305413,32.50066726781935 C 21.004616241988934,32.50513641847356 21.099809150923736,32.5100524841932 21.195002059858545,32.51228705952031 C 21.29019496879335,32.51496854991284 21.385387877728157,32.516309295109096 21.481027701728383,32.51541546497826 C 21.57622061066319,32.51452163484742 21.67141351959799,32.51184014445489 21.766159513467375,32.507817908866095 C 21.86135242240218,32.503795673277295 21.956098416271562,32.497538862361395 22.051291325206368,32.49128205144549 C 22.146037319075752,32.485472155595005 22.240783312945133,32.47966225974453 22.335529306814518,32.47206470363236 C 22.430275300683903,32.464467147520196 22.525021294553284,32.456422676342605 22.619320373357244,32.44659054490333 C 22.71406636722663,32.43675841346405 22.807918530965168,32.42424479163225 22.902217609769128,32.413071914996706 C 22.996516688573088,32.40145212329575 23.09081576737705,32.39027924666021 23.185114846181015,32.37821253989382 C 23.27941392498498,32.365698918062016 23.37371300378894,32.35363221129563 23.467565167527475,32.339777844267566 C 23.561417331266018,32.32547656217407 23.655269495004553,32.30983453488431 23.748674743677675,32.29285176239829 C 23.842526907416214,32.275868989912276 23.935485241023912,32.257545472229985 24.028890489697034,32.23877503948228 C 24.122295738370152,32.219557691669145 24.21525407197785,32.1998934287906 24.308212405585543,32.17888842071578 C 24.401170739193237,32.15788341264096 24.493682157735513,32.135984574435305 24.58619357627779,32.11274499103338 C 24.67870499482007,32.08995232269688 24.770769498296925,32.06626582422954 24.862834001773773,32.041238580565924 C 24.954898505250622,32.016211336902316 25.046516093662056,31.990290263107863 25.13813368207349,31.96347535918256 C 25.229304355419497,31.936660455257268 25.320475028765514,31.908504806135703 25.4111987870461,31.879455326883296 C 25.50192254532669,31.850405847630892 25.592199388541854,31.820462538247643 25.682476231757022,31.790072313798973 C 25.772753074972194,31.759682089350306 25.86258300312194,31.72839803477079 25.95241293127168,31.696667065125858 C 26.042242859421428,31.664936095480922 26.132072787571172,31.633205125835985 26.221455800655495,31.600133410994783 C 26.310838813739817,31.567061696153587 26.39977491175872,31.533096151181542 26.488264094712203,31.497342945947814 C 26.576753277665684,31.462036655779507 26.664348630488316,31.42494270534951 26.751943983310955,31.38695492478867 C 26.839539336133598,31.349414059293256 26.926240858825384,31.31008553353616 27.012942381517185,31.27075700777905 C 27.099643904208975,31.23098156695653 27.186345426900775,31.19075921106858 27.272153119461723,31.15008994011522 C 27.358407727088096,31.10942066916185 27.444215419649048,31.06830448314306 27.52957619714457,31.02584755192801 C 27.614936974640102,30.983390620712953 27.69940392200479,30.940039859367058 27.783870869369476,30.89534835282489 C 27.86789090166874,30.85110376134815 27.951464018902584,30.805518424675142 28.034590221071007,30.7590392578713 C 28.118163338304843,30.712560091067456 28.200842625407844,30.665634009198182 28.283074997445425,30.61736718213265 C 28.365307369483006,30.56910035506711 28.446645911389737,30.519492782805315 28.52753753823105,30.46943829547809 C 28.608876080137783,30.41938380815087 28.688873876848255,30.367988575627383 28.769318588624145,30.3165933431039 C 28.849316385334614,30.26475119551499 28.92976109711051,30.213355962991503 29.009311978755555,30.16061998527175 C 29.08841594533518,30.107884007551995 29.16751991191481,30.054701114766825 29.245283133298166,29.99973056171997 C 29.32304635468153,29.94520692373853 29.39991574593405,29.888448710429987 29.476338222121147,29.83124358205602 C 29.55276069830824,29.774485368747474 29.6282893443645,29.71638641024266 29.703817990420752,29.658287451737852 C 29.779346636477012,29.600188493233038 29.854875282533257,29.54208953472823 29.929510098458667,29.483096746092574 C 30.004591829449495,29.42410395745692 30.078779730309485,29.364664253755848 30.15252071610406,29.304330719923925 C 30.226261701898625,29.24399718609201 30.29910885756235,29.182322907063828 30.37195601322607,29.121095543101067 C 30.444803168889795,29.059421264072885 30.5172034094881,28.997300069979282 30.589156735020982,28.934731960820248 C 30.66066314548844,28.87216385166122 30.732616471021316,28.809595742502196 30.802782136292514,28.74523997308148 C 30.873394716629132,28.68133111872619 30.9431134668349,28.61608151917463 31.01193838690983,28.54993808949223 C 31.08031639191934,28.484241574875252 31.148247481863425,28.41675739999659 31.21528474167667,28.349273225117933 C 31.282768916555334,28.281789050239265 31.348912346237732,28.21341104522976 31.414608860854713,28.144139210089406 C 31.48030537547169,28.07531429001447 31.545108059957823,28.005148624743285 31.609463829378534,27.934982959472087 C 31.67381959879925,27.864370379135476 31.737281538089118,27.793757798798858 31.80029656231357,27.722251388331394 C 31.86375850160344,27.651191892929358 31.926773525827883,27.5796854824619 31.988447804856065,27.507285241863602 C 32.050568998949664,27.434885001265297 32.11179636291243,27.362037845601574 32.17257681180977,27.28829685980701 C 32.23335726070711,27.215002789077857 32.29324387947361,27.140814888217868 32.35268358317469,27.066626987357882 C 32.41212328687576,26.991992171432475 32.47156299057684,26.91735735550706 32.52966194908165,26.841828709450805 C 32.58820782265188,26.76674697845997 32.64585986609127,26.6907714173383 32.70261807939981,26.614348941151203 C 32.75937629270836,26.537479549898684 32.81479376082064,26.460163243580745 32.870211228932924,26.38240002219738 C 32.92518178197978,26.30463680081402 32.97970541996122,26.22642666436524 33.03333522781181,26.147769612851032 C 33.08741195072783,26.069112561336826 33.14059484351301,25.990008594757203 33.19288390616733,25.91045771311215 C 33.24517296882166,25.830906831467104 33.29701511641057,25.750909034756628 33.347963433868635,25.670464322980745 C 33.39891175132669,25.589572696139435 33.44896623865392,25.50868106929812 33.49857381091572,25.42734252739138 C 33.548181383177514,25.34600398548465 33.596448210243054,25.26377161344707 33.64471503730859,25.181539241409492 C 33.692981864374126,25.099306869371915 33.74080177637424,25.017074497334338 33.78772785824351,24.934395210231333 C 33.835100855178204,24.85126900806291 33.88202693704746,24.768589720959916 33.92761227372047,24.68456968866065 C 33.97275069532805,24.600996571426805 34.01699528680479,24.51652962406212 34.060792963216116,24.432062676697438 C 34.10459063962744,24.347148814267328 34.14749448590791,24.2617880367718 34.189504502057545,24.17642725927627 C 34.2319614332726,24.091066481780743 34.27397144942223,24.00525878921979 34.315087635441024,23.91945109665884 C 34.35620382145981,23.833643404097888 34.396426177347756,23.746941881406094 34.43620161817027,23.660240358714297 C 34.4759770589928,23.573538836022504 34.514858669684486,23.486837313330707 34.5523995351799,23.399241960508075 C 34.59038731574074,23.31164660768544 34.627034351105316,23.2240512548628 34.66278755633903,23.135562071909316 C 34.69854076157276,23.047072888955835 34.73295322161023,22.958136790936937 34.767365681647696,22.869647607983456 C 34.801778141685155,22.780711509964554 34.83619060172263,22.691775411945656 34.869709231629244,22.602392398861326 C 34.90278094647044,22.513009385777004 34.93585266131164,22.423626372692677 34.96713671589116,22.333796444542934 C 34.99842077047067,22.24351960132777 35.02836407985392,22.1532427581126 35.057860474171754,22.062518999832008 C 35.086909953424154,21.971795241551423 35.11506560254572,21.88062456820541 35.14322125166728,21.789453894859403 C 35.171376900788836,21.698730136578813 35.1995325499104,21.6075594632328 35.2263474538357,21.515941874821372 C 35.25360927282642,21.42477120147536 35.27997726168629,21.33315361306393 35.305004505349906,21.241089109587072 C 35.330031749013514,21.149024606110217 35.35371824748086,21.056960102633365 35.37695783088279,20.964448684091092 C 35.39975049921929,20.87193726554882 35.42164933742495,20.778978931941122 35.44354817563061,20.686467513398846 C 35.465000098770844,20.59350917979115 35.48511127671482,20.50010393111803 35.50656319985506,20.407592512575757 L 35.64242537974322,19.80470408932199 L 36.212689003221215,19.239356531563644 C 36.28106700823073,19.17321310188124 36.34944501324023,19.106175842068 36.41692918811889,19.039138582254758 C 36.48486027806298,18.972101322441514 36.55234445294165,18.90506406262827 36.61982862782031,18.83757988774961 C 36.687312802698976,18.770095712870944 36.75435006251222,18.70261153799228 36.82138732232546,18.634680448048194 C 36.8884245821387,18.566749358104108 36.955461841951944,18.49881826816002 37.02115835656892,18.42999334808509 C 37.08730178625132,18.36116842801016 37.1529983008683,18.29189659286981 37.21780098535444,18.222177842664035 C 37.28305058490599,18.152459092458262 37.34695943926128,18.082293427187068 37.41086829361657,18.011680846850453 C 37.47522406303728,17.941068266513838 37.53913291739258,17.87045568617722 37.60214794161703,17.798949275709763 C 37.665162965841475,17.727442865242303 37.727731075000506,17.655489539709425 37.78940535402869,17.583089299111123 C 37.85063271799145,17.5102421434474 37.91141316688879,17.436501157652827 37.97174670072071,17.362760171858262 C 38.031633319487206,17.289019186063694 38.091519938253704,17.214384370138283 38.15051272688935,17.139749554212873 C 38.20950551552501,17.065114738287463 38.26849830416066,16.99003300729663 38.32659726266547,16.91450436124038 C 38.38469622117028,16.838975715184127 38.44234826460968,16.76300015406245 38.498659562852794,16.68613076280993 C 38.55541777616134,16.609708286622833 38.61172907440446,16.53239198030489 38.66669962745133,16.454628758921533 C 38.721670180498194,16.376865537538173 38.77529998834878,16.298208486023967 38.828929796199375,16.21910451944434 C 38.882559604049966,16.140447467930134 38.93574249683514,16.06134350135051 38.98803155948947,15.981792619705459 C 39.04076753720923,15.902241738060411 39.093503514928976,15.822690856415361 39.14489874745246,15.742246144639473 C 39.19629397997595,15.662248347929003 39.24724229743401,15.581356721087689 39.296849869695805,15.500018179180955 C 39.3464574419576,15.41867963727422 39.394724269023136,15.336447265236641 39.44165035089241,15.253767978133643 C 39.48902334782711,15.171088691030644 39.53460868450011,15.08706865873138 39.57930019104227,15.003048626432115 C 39.62399169758444,14.91902859413285 39.66734245893033,14.83411473170274 39.71024630521081,14.748753954207213 C 39.7535970665567,14.663840091777107 39.79650091283718,14.578479314281578 39.83806401392139,14.493118536786046 C 39.879627115005604,14.407310844225098 39.92074330102439,14.321056236598723 39.960071826781494,14.23435471390693 C 39.99940035253859,14.147653191215134 40.037388133099434,14.060057838392497 40.07314133833316,13.972015570504439 C 40.10889454356689,13.88397330261638 40.143307003604356,13.795037204597476 40.17548488831471,13.705207276447732 C 40.20766277302507,13.615824263363407 40.23849991253916,13.525547420148243 40.26665556166072,13.434823661867654 C 40.2952581258477,13.344099903587065 40.321626114707584,13.252929230241055 40.34575952824035,13.1608647267642 C 40.369892941773124,13.068800223287345 40.39134486491336,12.97628880474507 40.41056221272648,12.883330471137375 C 40.43022647560503,12.790372137529678 40.44720924809105,12.696519973791139 40.46195744524997,12.603114725118019 C 40.47670564240889,12.509262561379478 40.48877234917527,12.414963482575518 40.49905139567996,12.320664403771556 C 40.50933044218466,12.226365324967594 40.516481083231405,12.13161933109821 40.52229097908189,12.037320252294249 C 40.52854778999779,11.942574258424866 40.533910770782846,11.848275179620904 40.53569843104454,11.753976100816944 C 40.53748609130623,11.659677022012982 40.5370391762408,11.565824858274443 40.53301694065201,11.47152577947048 C 40.52944162012864,11.377226700666519 40.52184406401647,11.282927621862559 40.51245884764261,11.188628543058595 C 40.50352054633418,11.094776379320056 40.491900754633214,11.000030385450671 40.47759947253973,10.906625136777553 C 40.46329819044624,10.812772973039014 40.44586850289479,10.71892080930047 40.42665115508166,10.626409390758198 C 40.4069868922031,10.533897972215923 40.38330039373576,10.43915197834654 40.35961389526842,10.350215880327637 C 40.33637431186649,10.261279782308737 40.30687791754866,10.164299213112244 40.28587290947385,10.093239717710205 C 40.26531481646445,10.021733307242746 40.24833204397843,9.969891159653839 40.23447767695036,9.921624332588305 C 40.22017639485687,9.872910590457348 40.212578838744705,9.842073450943255 40.20185287717459,9.802298010120731 C 40.24073448786626,9.709786591578457 40.284979079343,9.612359107316543 40.31849770924963,9.524316839428485 C 40.35201633915625,9.435827656475004 40.37972507321239,9.360745925484173 40.402070826483474,9.272703657596113 C 40.424863494819974,9.184661389708054 40.44274009743685,9.089468480773249 40.45391297407238,8.99606323210013 C 40.46553276577334,8.903104898492433 40.470001916427556,8.807465074492209 40.47000191642756,8.712719080622826 C 40.47000191642756,8.618420001818862 40.46553276577335,8.523227092884058 40.45391297407238,8.429821844210938 C 40.44184626730599,8.336416595537822 40.423969664689125,8.243011346864703 40.398942421025524,8.152734503649535 C 40.37391517736191,8.062010745368946 40.341290377586134,7.972627732284623 40.3033025970253,7.886373124658251 C 40.26576173152988,7.799671601966455 40.22107022498772,7.71520465460177 40.17235648285676,7.6347599428258786 C 40.12364274072581,7.553868315984566 40.06956601780979,7.475211264470362 40.01057322917413,7.401470278675793 C 39.952027355603896,7.3277292928812265 39.8881185012486,7.25711671254461 39.8197404962391,7.192760943123897 C 39.75091557616417,7.128405173703184 39.676727675304186,7.06941238506753 39.59896445392082,7.016229492282358 C 39.52120123253746,6.963046599497185 39.43852194543446,6.915673602562492 39.35360808300435,6.873663586412862 C 39.26914113563967,6.832100485328651 39.18065195268619,6.7959003650295 39.09126893960186,6.7659570556462505 C 39.00188592651754,6.736013746263003 38.90982142304068,6.710986502599392 38.81731000449842,6.693556815047948 C 38.72479858595614,6.676127127496505 38.630052592086756,6.664507335795543 38.53620042834821,6.661825845403014 C 38.44234826460967,6.658697439945062 38.34715535567487,6.663613505664699 38.254197022067174,6.675680212431084 C 38.16123868845948,6.68819383426289 38.06828035485179,6.708305012206862 37.97845042670203,6.7355668311975805 C 37.88862049855228,6.762381735122878 37.79968440053339,6.7967941951603414 37.71521745316869,6.837463466113709 C 37.63075050580401,6.878132737067077 37.54896504883185,6.9268464791980335 37.47075491238307,6.979582456917786 C 37.39254477593429,7.032318434637537 37.317016129878034,7.091311223273189 37.245956634475995,7.153432417366794 C 37.174450224008545,7.2155536114604 37.10562530393361,7.281697041142799 37.04305719477458,7.3518627064139945 C 36.98048908561555,7.422475286750609 36.9214962969799,7.497557017741443 36.869654149390996,7.575767154190226 C 36.81736508673667,7.65442420570443 36.7704390048674,7.737550407872851 36.729769733914026,7.822464270302959 C 36.68865354789524,7.907378132733065 36.65334725772693,7.995867315686548 36.62429777847453,8.085697243836293 C 36.59524829922213,8.175080256920618 36.57156180075478,8.26759167546289 36.55502594333417,8.360103094005165 C 36.538043170848155,8.452614512547441 36.52642337914719,8.546913591351403 36.522848058623815,8.640765755089943 C 36.51927273810044,8.73417100376306 36.522848058623815,8.828916997632446 36.53357402019394,8.921875331240143 C 36.544299981764055,9.015280579913261 36.56307041451176,9.10868582858638 36.58720382804453,9.199409586866967 C 36.6113372415773,9.290580260212977 36.64262129615681,9.380410188362722 36.67882141645597,9.467558626119938 C 36.71502153675512,9.554707063877155 36.75658463783933,9.640961671503527 36.803957634774015,9.72230021341026 C 36.85177754677413,9.803638755316996 36.9049604395593,9.8822958068312 36.963506313129535,9.955589877560348 C 37.022499101765185,10.028883948289494 37.088195616382166,10.097708868364423 37.157467451522514,10.161617722719713 C 37.22673928666286,10.225973492140426 37.30137410258827,10.285413195841501 37.378690408906216,10.339936833822941 C 37.45555980015873,10.39446047180438 37.536451427000046,10.445855704327865 37.61957762916847,10.48920646567376 C 37.70315074640231,10.533004142085078 37.78985226909411,10.571438837711339 37.87878836711301,10.601382147094588 C 37.96772446513191,10.631325456477837 38.059788968608764,10.653671209748918 38.152300387151044,10.669760152104095 C 38.24525872075874,10.685849094459273 38.34000471462812,10.694787395767705 38.43430379343208,10.697468886160236 C 38.52815595717062,10.699703461487344 38.62379578117085,10.695234310833127 38.716754114778546,10.684508349263009 C 38.80971244838624,10.674229302758311 38.905352272386466,10.652777379618074 38.99115996494742,10.634453861935787 C 39.07696765750837,10.6161303442535 39.17618280203197,10.58797469513194 39.23070644001341,10.57456724316929 C 39.28567699306027,10.56115979120664 39.28523007799484,10.560265961075798 39.31964253803231,10.553562235094473 C 39.35405499806977,10.546858509113148 39.39785267448109,10.540601698197246 39.4371812002382,10.533897972215922 M 18.42770397476788,28.633064291660656 C 18.60781074613279,28.578987568744644 18.787917517497707,28.513737969193087 18.968024288862615,28.4685995475855 C 19.056960386881517,28.445806879248998 19.151706380750902,28.4230142109125 19.243770884227754,28.39977462751057 C 19.33583538770461,28.37608812904322 19.428346806246882,28.35150780044503 19.520411309723738,28.326927471846847 C 19.612475813200593,28.302347143248657 19.704540316677445,28.27731989958505 19.796604820154297,28.252292655921437 C 19.888669323631152,28.22726541225783 19.980286912042583,28.202238168594217 20.072351415519435,28.176764009865185 C 20.16441591899629,28.151736766201573 20.25603350740772,28.12626260747254 20.348098010884577,28.100788448743508 C 20.43971559929601,28.07531429001447 20.531780102772863,28.049840131285446 20.623397691184294,28.023472142425568 C 20.71501527959573,27.99710415356569 20.806185952941735,27.9702892496404 20.897803541353166,27.9434743457151 C 20.98897421469918,27.91621252672438 21.080144888045186,27.88850379266824 21.171315561391197,27.860348143546673 C 21.262039319671782,27.83219249442511 21.353209993017796,27.80314301517271 21.44393375129839,27.774093535920308 C 21.534657509578974,27.7450440566679 21.625381267859563,27.71510074728465 21.71565811107473,27.685604352966827 C 21.806381869355317,27.655661043583574 21.89665871257049,27.62571773420033 21.987382470851074,27.59532750975166 C 22.07765931406624,27.565384200368406 22.16793615728141,27.534993975919736 22.25821300049658,27.50505066653649 C 22.348936758777167,27.474660442087824 22.439213601992336,27.444270217639154 22.5294904452075,27.41343307812506 C 22.619767288422665,27.382595938610965 22.709597216572412,27.351758799096878 22.799874059787577,27.320027829451934 C 22.88970398793732,27.288743774872426 22.979087001021647,27.256565890162065 23.06891692917139,27.223941090386294 C 23.158299942255713,27.191316290610516 23.24768295534004,27.158244575769313 23.337065968424366,27.12517286092811 C 23.42689589657411,27.092548061152335 23.516278909658435,27.059923261376557 23.605661922742758,27.026404631469937 C 23.69459802076166,26.992886001563317 23.783981033845986,26.959814286722114 23.872917131864885,26.925401826684652 C 23.961853229883786,26.890989366647187 24.050342412837267,26.855683076478876 24.138831595790748,26.81992987124515 C 24.226873863678808,26.78417666601142 24.314916131566868,26.747529630646845 24.402958399454928,26.711329510347692 C 24.49144758240841,26.674682474983126 24.57948985029647,26.63848235468397 24.66753211818453,26.60228223438482 C 24.75557438607259,26.566082114085663 24.844063569026066,26.529881993786514 24.932105836914126,26.493681873487365 C 25.020148104802185,26.457034838122798 25.108190372690245,26.420387802758217 25.196232640578298,26.38374076739365 C 25.28382799340094,26.346646816963656 25.371870261288997,26.309999781599082 25.45946561411164,26.272458916103666 C 25.547060966934275,26.23447113554283 25.634209404691493,26.19603643991657 25.720910927383283,26.15760174429031 C 25.8080593651405,26.118720133598632 25.89476088783229,26.07939160784153 25.981909325589505,26.04006308208442 C 26.0686108482813,26.00118147139274 26.155759286038514,25.961852945635638 26.242460808730314,25.922524419878535 C 26.329162331422104,25.88319589412143 26.415863854113905,25.84342045329891 26.502118461740274,25.802751182345542 C 26.58837306936665,25.762528826457594 26.674180761927598,25.721412640438807 26.759988454488546,25.6798495393546 C 26.845796147049498,25.638286438270384 26.93115692454503,25.595829507055335 27.016517702040552,25.5538194909057 C 27.102325394601504,25.51136255969065 27.187686172097035,25.468905628475593 27.27260003452714,25.42644869726054 C 27.35796081202267,25.38399176604549 27.4433215895182,25.34108791976501 27.52868236701373,25.298630988549952 C 27.613596229443836,25.25572714226948 27.698957006939366,25.212823295989004 27.783870869369476,25.16947253464311 C 27.868784731799582,25.126568688362635 27.95369859422969,25.083217927016737 28.0386124566598,25.039420250605417 C 28.12307940402448,24.995175659128677 28.207099436323748,24.950931067651936 28.291566383688437,24.90623956110977 C 28.3755864159877,24.86154805456761 28.459159533221545,24.815962717894607 28.54317956552081,24.770824296287024 C 28.62675268275465,24.72523895961402 28.710772715053917,24.67965362294101 28.793898917222332,24.63406828626801 C 28.877472034456172,24.588036034529583 28.96104515169002,24.542003782791156 29.04417135385844,24.495524615987307 C 29.12774447109228,24.449492364248883 29.210870673260708,24.40346011251045 29.29399687542913,24.356980945706606 C 29.377123077597552,24.310501778902758 29.46024927976597,24.26402261209891 29.543375481934394,24.21664961516422 C 29.62605476903739,24.16972353329495 29.70873405614039,24.121903621294834 29.79096642817797,24.07453062436014 C 29.873645715280972,24.02671071236003 29.95632500238397,23.97844388529449 30.038110459356123,23.93062397329438 C 30.119895916328282,23.88280406129427 30.20480977875839,23.833196489032467 30.28257300014175,23.788504982490306 C 30.36078313659053,23.743366560882723 30.4510599798057,23.692418243424658 30.50603053285256,23.662028018975988 C 30.578877688516283,23.621805663088043 30.65127792911459,23.593203098901057 30.724125084778308,23.552980743013112 C 30.58692215969387,23.804593924845484 30.44927231954401,24.07453062436014 30.312069394459574,24.27564240379987 C 30.258439586608983,24.354299455314077 30.2030221184967,24.432062676697438 30.14760465038442,24.509378983015374 C 30.092187182272138,24.587142204398734 30.035875884029018,24.66401159565126 29.979117670720473,24.740434071838354 C 29.922359457411922,24.81685654802545 29.865601244103377,24.893279024212546 29.807502285598567,24.9688076702688 C 29.748956412028335,25.044336316325058 29.6904105384581,25.11897113225046 29.630077004626184,25.193159033110458 C 29.570190385859686,25.266900018905023 29.50896302189692,25.339747174568746 29.44684182780332,25.41214741516705 C 29.384720633709716,25.484547655765354 29.321258694419843,25.555607151167383 29.257796755129974,25.626666646569422 C 29.194334815840104,25.69772614197146 29.130425961484818,25.76833872230808 29.06562327699868,25.83805747251385 C 29.00082059251254,25.90777622271962 28.935570992960987,25.97704805785997 28.868980648213167,26.045426062869485 C 28.80283721853077,26.11380406787899 28.735353043652104,26.181288242757653 28.66742195370802,26.247878587505475 C 28.599490863763933,26.314915847318716 28.530665943689,26.38105927700112 28.46094719348323,26.44541504642183 C 28.391228443277452,26.510217730907964 28.32016894787542,26.573679670197834 28.248215622342542,26.63624777935686 C 28.176709211875085,26.699262803581306 28.103862056211362,26.760937082609495 28.030567985482215,26.82127061644141 C 27.957273914753067,26.88205106533875 27.883086013893074,26.94193768410525 27.808004282902246,27.000483557675484 C 27.732922551911418,27.059029431245715 27.65694699078974,27.116681474685105 27.580077599537216,27.172992772928225 C 27.503208208284697,27.22930407117135 27.424998071835912,27.28427462421821 27.34678793538713,27.33835134713423 C 27.26857779893835,27.39242807005024 27.18947383235872,27.445610962835417 27.109476035648253,27.49790002548974 C 27.029925154003205,27.550636003209497 26.94992735729273,27.60203123573298 26.869482645516843,27.65297955319105 C 26.788591018675525,27.703480955583693 26.707252476768797,27.75308852784549 26.625020104731217,27.801802269976445 C 26.543234647759064,27.850069097041978 26.46010844559064,27.89699517891125 26.3765353283568,27.942580515584257 C 26.29296221112296,27.98816585225726 26.20849526375827,28.032410443734005 26.12358140132816,28.07531429001447 C 26.03822062383263,28.11777122122953 25.95241293127168,28.159334322313743 25.866158323645305,28.20000359326711 C 25.779903716018932,28.240225949155054 25.69320219332714,28.279107559846732 25.605606840504507,28.317542255472993 C 25.51845840274729,28.35553003603383 25.43041613485923,28.39262398646382 25.342373866971172,28.428377191697557 C 25.254331599083113,28.464577311996706 25.16584241612963,28.49988360216501 25.076459403045305,28.533849147137058 C 24.987523305026404,28.56736777704368 24.89814029194208,28.600439491884874 24.807863448726916,28.631276631398972 C 24.71803352057717,28.662560685978487 24.62730976229658,28.692057080296312 24.53658600401599,28.720659644483295 C 24.445415330669977,28.748815293604856 24.354244657323967,28.775630197530155 24.26262706891254,28.801551271324602 C 24.171009480501105,28.82791926018448 24.078944977024253,28.85294650384809 23.986880473547398,28.87663300231544 C 23.894369055005125,28.900319500782782 23.80185763646285,28.923112169119285 23.70889930285515,28.944117177194105 C 23.61638788431288,28.9646752702035 23.522982635639757,28.982998787885784 23.42957738696664,29.00042847543723 C 23.33617213829352,29.018305078054095 23.24231997455498,29.03394710534385 23.14846781081644,29.049142217568185 C 23.0546156470779,29.064784244857943 22.960763483339363,29.079532442016852 22.86691131960082,29.092939893979505 C 22.772612240796857,29.10590043087673 22.678760077058318,29.117967137643113 22.58446099825436,29.128246184147812 C 22.489715004384976,29.13852523065251 22.395415925581016,29.147910447026362 22.30066993171163,29.154167257942266 C 22.205923937842247,29.16087098392359 22.110731028907445,29.16444630444696 22.015538119972636,29.167574709904912 C 21.92034521103783,29.17025620029744 21.825152302103028,29.17025620029744 21.729959393168222,29.171150030428286 C 21.634766484233417,29.17159694549371 21.53912666023319,29.17159694549371 21.44393375129839,29.17159694549371 C 21.348740842363583,29.171150030428286 21.253101018363353,29.17159694549371 21.15790810942855,29.17025620029744 C 21.062715200493745,29.168915455101175 20.967522291558943,29.168021624970336 20.872329382624134,29.163552474316116 C 20.77758338875475,29.159530238727328 20.682837394885368,29.153273427811417 20.588091401015987,29.145228956633833 C 20.493345407146602,29.137184485456245 20.399046328342642,29.126458523886125 20.30474724953868,29.114838732185163 C 20.210895085800136,29.102772025418776 20.116596006996176,29.089364573456127 20.023190758323057,29.073722546166373 C 19.929338594584515,29.058527433942036 19.8359333459114,29.04154466145602 19.74252809723828,29.02322114377373 C 19.649122848565163,29.004897626091445 19.55616451495747,28.985233363212892 19.46320618134977,28.96378144007266 C 19.370694762807496,28.94232951693242 19.2777364291998,28.919536848595918 19.186118840788367,28.895403435063145 C 19.094501252376933,28.87127002153038 18.99975525850755,28.8449020326705 18.913053735815755,28.81898095887605 C 18.75127048213313,28.77071413181051 18.589487228450505,28.694738570688838 18.427703974767876,28.633064291660656" fill="url(#tsg)"/>
		<path d="M 32.94395221472749,7.103377930039574 C 34.15106980643128,6.979582456917786 35.37785166101363,7.129745918899449 36.53714934071731,7.480127330189999 L 36.27212870692229,8.082121923312918 C 35.345673776303265,7.810844478601997 34.37497425420751,7.674982298713825 33.40919079783139,7.722355295648516 A 15.271087785456727,15.271087785456727 0.0 0,0 32.94395221472749,7.103377930039574" fill="url(#tsg)"/>
	</g>
	<circle cx="38.5518" cy="8.7257" r="2.0782" fill="url(#tsg)"/>
	<circle cx="16.0452" cy="16.8908" r="1.5955" fill="url(#tsg)"/>
	<circle cx="21.1132" cy="16.8908" r="1.5955" fill="url(#tsg)"/>
	<circle cx="26.1812" cy="16.8908" r="1.5955" fill="url(#tsg)"/>
	<path d="M 49.607345102276994,26.923405948693983 L 49.607345102276994,12.14655036121039 L 45.04425209686207,12.14655036121039 L 45.04425209686207,9.309394088413537 L 57.33859594564842,9.309394088413537 L 57.33859594564842,12.14655036121039 L 52.846431847053395,12.14655036121039 L 52.846431847053395,26.923405948693983 L 49.60734510227699,26.923405948693983 M 62.9419795844222,27.207121575973666 Q 61.5943303548437,27.207121575973666 60.60132565936478,26.757905166114163 Q 59.608320963885895,26.30868875625466 59.064532678266495,25.469363358885595 Q 58.520744392647096,24.630037961516525 58.5207443926471,23.51881842133776 Q 58.5207443926471,22.45488481903894 58.99360377144657,21.615559421669875 Q 59.46646315024604,20.776234024300805 60.459467845724944,20.208802769741435 Q 61.452472541203846,19.641371515182065 62.96562255336217,19.40494182578233 L 67.17407102467749,18.71929572652309 L 67.17407102467749,21.083592620520466 L 63.55669677686151,21.698309812959785 Q 62.634620988202535,21.8638105955396 62.18540457834303,22.289384036459126 Q 61.73618816848353,22.714957477378654 61.73618816848354,23.40060357663789 Q 61.73618816848354,24.06260670695716 62.244512000692964,24.452715694466725 Q 62.752835832902406,24.842824681976293 63.50941083898156,24.842824681976293 Q 64.47877256552049,24.842824681976293 65.22352608712966,24.42907272552675 Q 65.96827960873883,24.01532076907721 66.38203156518837,23.282388731938024 Q 66.79578352163792,22.549456694798838 66.7957835216379,21.67466684401981 L 66.7957835216379,18.364651192423484 Q 66.7957835216379,17.537147279524405 66.14560187578863,16.981537509435018 Q 65.49542022993936,16.42592773934564 64.43148662764054,16.42592773934564 Q 63.438481932161636,16.42592773934564 62.67008544161249,16.957894540495044 Q 61.90168895106334,17.489861341644456 61.54704441696374,18.364651192423484 L 59.01724674038655,17.135216807544847 Q 59.395534243426134,16.118569143125978 60.211216671855226,15.373815621516806 Q 61.02689910028432,14.629062099907632 62.138118640463084,14.203488658988105 Q 63.24933818064185,13.777915218068578 64.5497014723404,13.777915218068578 Q 66.13378039131864,13.777915218068578 67.3395718072573,14.357167957097936 Q 68.54536322319596,14.936420696127291 69.21918783798522,15.964889845016149 Q 69.89301245277447,16.99335899390501 69.89301245277447,18.364651192423484 L 69.89301245277447,26.923405948693983 L 66.96128430421771,26.923405948693983 L 66.96128430421771,24.724609837276425 L 67.62328743453699,24.677323899396477 Q 67.12678508679754,25.50482781229556 66.4411389875383,26.060437582384942 Q 65.75549288827906,26.616047352474325 64.88070303750004,26.911584464223996 Q 64.005913186721,27.207121575973666 62.9419795844222,27.207121575973666 M 72.75381169451128,26.923405948693983 L 72.75381169451128,9.025678461133854 L 75.85104062564784,9.025678461133854 L 75.85104062564784,26.923405948693983 L 72.75381169451128,26.923405948693983 M 78.71183986738467,26.923405948693983 L 78.71183986738467,9.025678461133854 L 81.80906879852124,9.025678461133854 L 81.80906879852124,20.752591055360835 L 80.62692035152256,20.397946521261225 L 86.67952040015584,14.061630845348263 L 90.53332433737155,14.061630845348263 L 85.78108758043683,19.239441043202515 L 90.62789621313144,26.923405948693983 L 87.08145087213538,26.923405948693983 L 82.87300240082006,20.256088707621384 L 84.71715397813801,19.877801204581804 L 80.83970707198232,24.038963738017184 L 81.80906879852124,22.147526222819284 L 81.80906879852124,26.923405948693983 L 78.71183986738467,26.923405948693983" fill="#111111"/>
	<path d="M 98.90293534212228,27.207121575973666 Q 97.22428454738413,27.207121575973666 95.79388492651572,26.592404383534348 Q 94.36348530564729,25.97768719109503 93.33501615675846,24.87828913538625 Q 92.3065470078696,23.778891079677475 91.83368762907011,22.313027005399103 L 94.50534311928715,21.154521527340385 Q 95.14370328066644,22.667671539498706 96.34949469660509,23.53063990580775 Q 97.55528611254377,24.393608272116794 99.06843612470207,24.39360827211679 Q 99.91958300654113,24.39360827211679 100.54612168345044,24.121714129307094 Q 101.17266036035974,23.849819986497394 101.51548340998936,23.37696060769792 Q 101.85830645961899,22.904101228898444 101.85830645961899,22.24209809857918 Q 101.85830645961899,21.461880123560046 101.3972685652895,20.953556291350612 Q 100.93623067096,20.445232459141177 100.01415488230104,20.161516831861487 L 96.63321032388477,19.0739402606227 Q 94.57627202610705,18.435580099243406 93.53598139274823,17.158859776484825 Q 92.49569075938938,15.882139453726241 92.49569075938938,14.156202721108157 Q 92.49569075938938,12.643052708949837 93.24044428099855,11.484547230891124 Q 93.98519780260773,10.326041752832412 95.32102554771625,9.67586010698313 Q 96.65685329282476,9.025678461133854 98.38279002544283,9.025678461133854 Q 99.96686894442107,9.025678461133854 101.2908752050596,9.581288231223237 Q 102.61488146569813,10.13689800131262 103.57242170776708,11.118081212321531 Q 104.52996194983604,12.099264423330442 105.00282132863549,13.42327068396897 L 102.35480880735844,14.605419130967658 Q 101.83466349067902,13.281412870329127 100.79437285732017,12.56030231765993 Q 99.75408222396132,11.83919176499073 98.38279002544283,11.839191764990732 Q 97.57892908148374,11.839191764990732 96.96421188904442,12.11108590780043 Q 96.34949469660509,12.382980050610126 96.00667164697549,12.867660913879588 Q 95.66384859734586,13.352341777149052 95.66384859734586,14.014344907468315 Q 95.66384859734586,14.747276944607501 96.13670797614533,15.302886714696884 Q 96.6095673549448,15.858496484786267 97.57892908148374,16.165855081005926 L 100.81801582626014,17.182502745424795 Q 102.92224006191782,17.868148844684036 103.97435217974663,19.0739402606227 Q 105.02646429757547,20.27973167656136 105.02646429757547,22.052954347059387 Q 105.02646429757547,23.566104359217707 104.24624632255632,24.724609837276425 Q 103.46602834753719,25.883115315335136 102.09473614901873,26.5451184456544 Q 100.72344395050025,27.207121575973666 98.90293534212228,27.207121575973666 M 107.65083384991256,31.65199973668873 L 107.65083384991256,14.061630845348263 L 110.55891902952933,14.061630845348263 L 110.55891902952933,16.615071490865425 L 110.27520340224963,15.976711329486138 Q 110.9372065325689,14.936420696127291 112.07206904168766,14.357167957097936 Q 113.20693155080637,13.777915218068578 114.69643859402473,13.777915218068578 Q 116.5169472024027,13.777915218068578 117.98281127668109,14.67634803778758 Q 119.44867535095945,15.574780857506582 120.3116437172685,17.087930869664902 Q 121.17461208357754,18.601080881823222 121.17461208357753,20.492518397021122 Q 121.17461208357753,22.360312943279048 120.32346520173847,23.897105924377342 Q 119.47231831989941,25.433898905475633 118.00645424562106,26.320510240724648 Q 116.54059017134267,27.207121575973666 114.67279562508476,27.207121575973666 Q 113.27786045762632,27.207121575973666 112.1075334950976,26.651511805884283 Q 110.93720653256891,26.0959020357949 110.25156043330966,25.055611402436057 L 110.74806278104913,24.44089420999674 L 110.74806278104913,31.65199973668873 L 107.65083384991256,31.65199973668873 M 114.31815109098515,24.369965303176816 Q 115.38208469328396,24.369965303176816 116.20958860618305,23.87346295543737 Q 117.03709251908214,23.37696060769792 117.4981304134116,22.50217075691889 Q 117.95916830774111,21.627380906139862 117.95916830774111,20.492518397021122 Q 117.95916830774111,19.357655887902382 117.4981304134116,18.494687521593338 Q 117.03709251908214,17.631719155284294 116.20958860618305,17.12339532307486 Q 115.38208469328396,16.615071490865425 114.31815109098515,16.615071490865425 Q 113.30150342656627,16.615071490865425 112.48582099813717,17.111573838604876 Q 111.67013856970809,17.608076186344324 111.2091006753786,18.494687521593338 Q 110.74806278104913,19.381298856842356 110.74806278104913,20.492518397021122 Q 110.74806278104913,21.627380906139862 111.2091006753786,22.50217075691889 Q 111.6701385697081,23.37696060769792 112.48582099813717,23.87346295543737 Q 113.30150342656627,24.36996530317682 114.31815109098515,24.36996530317682 M 123.5389089775749,26.923405948693983 L 123.5389089775749,9.025678461133854 L 126.63613790871146,9.025678461133854 L 126.63613790871146,16.591428521925454 L 126.21056446779194,16.142212112065952 Q 126.65978087765144,14.98370663400724 127.6882500265403,14.380810926037908 Q 128.71671917542918,13.777915218068578 130.08801137394767,13.777915218068578 Q 131.5065895103461,13.777915218068578 132.60598756605486,14.392632410507895 Q 133.70538562176364,15.007349602947212 134.32010281420295,16.10674765865599 Q 134.93482000664227,17.20614571436477 134.93482000664227,18.648366819703167 L 134.93482000664227,26.923405948693983 L 131.8375910755057,26.923405948693983 L 131.8375910755057,19.381298856842356 Q 131.8375910755057,18.5301519750033 131.5065895103461,17.91543478256398 Q 131.17558794518644,17.300717590124663 130.59633520615708,16.957894540495044 Q 130.01708246712772,16.615071490865425 129.2368644921086,16.615071490865425 Q 128.48028948602942,16.615071490865425 127.88921526253009,16.957894540495044 Q 127.29814103903074,17.300717590124663 126.9671394738711,17.91543478256398 Q 126.63613790871146,18.5301519750033 126.63613790871146,19.381298856842356 L 126.63613790871146,26.923405948693983 L 123.53890897757489,26.923405948693983 M 143.65907554549258,27.207121575973666 Q 141.6730661545348,27.207121575973666 140.18355911131644,26.308688756254664 Q 138.69405206809807,25.410255936535663 137.866548155199,23.87346295543737 Q 137.03904424229995,22.336669974339074 137.03904424229995,20.468875428081148 Q 137.03904424229995,18.5301519750033 137.87836963966902,17.028823447314966 Q 138.71769503703808,15.527494919626633 140.17173762684646,14.652705068847606 Q 141.62578021665487,13.777915218068578 143.42264585609286,13.777915218068578 Q 144.93579586825115,13.777915218068578 146.0824798618399,14.274417565808024 Q 147.22916385542862,14.770919913547473 148.03302479938773,15.645709764326504 Q 148.83688574334684,16.520499615105532 149.26245918426636,17.643540639754285 Q 149.68803262518588,18.766581664403038 149.68803262518588,20.066944956101597 Q 149.68803262518588,20.39794652126123 149.65256817177593,20.752591055360835 Q 149.61710371836597,21.10723558946044 149.52253184260607,21.36730824780015 L 139.5924848878171,21.36730824780015 L 139.5924848878171,19.003011353802776 L 147.77295214104802,19.003011353802776 L 146.30708806676964,20.114230893981542 Q 146.5198747872294,19.02665432274275 146.20069470653976,18.175507440903694 Q 145.88151462585012,17.32436055906464 145.16040407318093,16.82785821132519 Q 144.43929352051174,16.331355863585742 143.42264585609286,16.331355863585742 Q 142.4532841295539,16.331355863585742 141.69670912347476,16.816036726855202 Q 140.9401341173956,17.300717590124663 140.55002512988605,18.23461486325363 Q 140.1599161423765,19.168512136382592 140.25448801813636,20.492518397021122 Q 140.15991614237646,21.67466684401981 140.57366809882603,22.5849211482088 Q 140.98742005527555,23.49517545239779 141.80310248370463,23.99167780013724 Q 142.61878491213375,24.488180147876687 143.68271851443254,24.488180147876687 Q 144.74665211673135,24.488180147876687 145.49140563834055,24.038963738017184 Q 146.23615915994972,23.58974732815768 146.66173260086924,22.83317232207852 L 149.16788730850647,24.06260670695716 Q 148.78959980546688,24.98468249561613 147.9857388615078,25.693971563815346 Q 147.1818779175487,26.40326063201456 146.0824798618399,26.80519110399411 Q 144.9830818061311,27.207121575973666 143.65907554549258,27.207121575973666 M 152.0286865502433,26.923405948693983 L 152.0286865502433,14.061630845348263 L 154.93677172986006,14.061630845348263 L 154.93677172986006,16.922430087085086 L 154.70034204046033,16.496856646165558 Q 155.14955845031983,15.05463554082716 156.10709869238877,14.48720428626779 Q 157.06463893445772,13.91977303170842 158.4122881640362,13.91977303170842 L 159.16886317011537,13.91977303170842 L 159.16886317011537,16.662357428745374 L 158.0576436299366,16.662357428745374 Q 156.73363736929807,16.662357428745374 155.92977642533896,17.47803985717447 Q 155.12591548137985,18.293722285603565 155.12591548137985,19.759586359881936 L 155.12591548137985,26.923405948693983 L 152.0286865502433,26.923405948693983 M 166.9710429203067,27.207121575973666 Q 164.98503352934893,27.207121575973666 163.49552648613056,26.308688756254664 Q 162.0060194429122,25.410255936535663 161.17851553001313,23.87346295543737 Q 160.35101161711404,22.336669974339074 160.35101161711404,20.468875428081148 Q 160.35101161711404,18.5301519750033 161.1903370144831,17.028823447314966 Q 162.02966241185217,15.527494919626633 163.48370500166058,14.652705068847606 Q 164.93774759146896,13.777915218068578 166.73461323090694,13.777915218068578 Q 168.24776324306526,13.777915218068578 169.394447236654,14.274417565808024 Q 170.54113123024274,14.770919913547473 171.34499217420185,15.645709764326504 Q 172.14885311816096,16.520499615105532 172.57442655908048,17.643540639754285 Q 173.0,18.766581664403038 173.0,20.066944956101597 Q 173.0,20.39794652126123 172.96453554659004,20.752591055360835 Q 172.92907109318008,21.10723558946044 172.8344992174202,21.36730824780015 L 162.90445226263122,21.36730824780015 L 162.90445226263122,19.003011353802776 L 171.0849195158621,19.003011353802776 L 169.61905544158375,20.114230893981542 Q 169.83184216204353,19.02665432274275 169.51266208135385,18.175507440903694 Q 169.1934820006642,17.32436055906464 168.47237144799504,16.82785821132519 Q 167.75126089532586,16.331355863585742 166.73461323090694,16.331355863585742 Q 165.76525150436802,16.331355863585742 165.00867649828888,16.816036726855202 Q 164.2521014922097,17.300717590124663 163.86199250470014,18.23461486325363 Q 163.47188351719058,19.168512136382592 163.56645539295047,20.492518397021122 Q 163.47188351719058,21.67466684401981 163.88563547364012,22.5849211482088 Q 164.29938743008967,23.49517545239779 165.11506985851875,23.99167780013724 Q 165.93075228694786,24.488180147876687 166.99468588924665,24.488180147876687 Q 168.05861949154547,24.488180147876687 168.80337301315467,24.038963738017184 Q 169.54812653476387,23.58974732815768 169.97369997568336,22.83317232207852 L 172.47985468332058,24.06260670695716 Q 172.101567180281,24.98468249561613 171.29770623632191,25.693971563815346 Q 170.4938452923628,26.40326063201456 169.394447236654,26.80519110399411 Q 168.29504918094523,27.207121575973666 166.9710429203067,27.207121575973666" fill="url(#tsgText)"/>
</svg>