<svg xmlns="http://www.w3.org/2000/svg" viewBox="0 0 868.75 719.75" width="869" height="720">
  <defs>
    <linearGradient id="tsg" gradientUnits="userSpaceOnUse" x1="88.16" y1="3.021" x2="606.13" y2="719.871">
      <stop offset="0" stop-color="#38EF7D"/>
      <stop offset="1" stop-color="#11998E"/>
    </linearGradient>
  </defs>
  <g fill-rule="evenodd">
    <path d="M 753.05 322.091 A 326.4 326.4 0 1 0 177.72 539.651 A 495.65 495.65 0 0 0 284.97 538.361 A 246.1 246.1 0 1 1 671.15 389.881 A 641.66 641.66 0 0 0 753.05 322.091 Z" fill="url(#tsg)"/>
    <path d="M 839.83 193.161 C 840.22 195.371 840.72 197.691 840.99 199.781 C 841.27 201.881 841.42 203.671 841.5 205.711 C 841.57 207.751 841.57 209.921 841.45 212.021 C 841.33 214.121 841.08 216.241 840.79 218.341 C 840.5 220.441 840.12 222.531 839.69 224.611 C 839.26 226.691 838.75 228.761 838.21 230.821 C 837.67 232.871 837.08 234.921 836.44 236.951 C 835.81 238.991 835.13 241.011 834.39 243.011 C 833.66 245.011 832.87 246.991 832.05 248.951 C 831.23 250.921 830.37 252.871 829.48 254.811 C 828.58 256.741 827.66 258.661 826.69 260.561 C 825.72 262.461 824.7 264.331 823.66 266.191 C 822.62 268.051 821.54 269.891 820.46 271.731 C 819.37 273.561 818.28 275.391 817.15 277.201 C 816.01 279.001 814.84 280.781 813.64 282.551 C 812.45 284.311 811.21 286.051 809.97 287.781 C 808.73 289.521 807.47 291.241 806.2 292.951 C 804.93 294.671 803.65 296.371 802.35 298.071 C 801.06 299.761 799.75 301.451 798.43 303.121 C 797.1 304.791 795.76 306.451 794.41 308.091 C 793.05 309.741 791.67 311.371 790.29 312.991 C 788.9 314.601 787.49 316.211 786.08 317.801 C 784.66 319.391 783.23 320.981 781.79 322.541 C 780.34 324.111 778.87 325.651 777.39 327.191 C 775.91 328.731 774.41 330.241 772.91 331.761 C 771.41 333.281 769.91 334.791 768.4 336.301 C 766.89 337.811 765.38 339.321 763.86 340.811 C 762.34 342.311 760.82 343.811 759.28 345.281 C 757.74 346.761 756.19 348.231 754.63 349.681 C 753.07 351.131 751.49 352.561 749.91 353.991 C 748.33 355.421 746.74 356.851 745.15 358.271 C 743.55 359.681 741.95 361.091 740.34 362.491 C 738.73 363.881 737.11 365.271 735.49 366.651 C 733.86 368.031 732.23 369.411 730.59 370.771 C 728.95 372.131 727.29 373.471 725.63 374.811 C 723.98 376.151 722.32 377.501 720.66 378.841 C 719 380.181 717.35 381.521 715.68 382.851 C 714.02 384.191 712.35 385.511 710.67 386.831 C 708.99 388.141 707.3 389.441 705.6 390.741 C 703.91 392.031 702.2 393.321 700.5 394.591 C 698.79 395.871 697.08 397.151 695.36 398.411 C 693.64 399.671 691.91 400.921 690.18 402.171 C 688.45 403.421 686.71 404.661 684.98 405.901 C 683.24 407.141 681.51 408.381 679.77 409.611 C 678.03 410.851 676.29 412.091 674.54 413.311 C 672.8 414.531 671.04 415.751 669.28 416.951 C 667.52 418.161 665.75 419.351 663.98 420.541 C 662.21 421.731 660.43 422.911 658.65 424.091 C 656.87 425.261 655.1 426.441 653.31 427.601 C 651.52 428.771 649.73 429.921 647.92 431.061 C 646.12 432.201 644.31 433.331 642.49 434.451 C 640.68 435.571 638.86 436.681 637.03 437.791 C 635.21 438.891 633.37 439.971 631.54 441.061 C 629.7 442.151 627.87 443.231 626.03 444.321 C 624.19 445.401 622.36 446.501 620.52 447.581 C 618.68 448.651 616.84 449.731 614.99 450.791 C 613.15 451.861 611.29 452.921 609.44 453.971 C 607.58 455.021 605.73 456.061 603.86 457.101 C 601.99 458.131 600.12 459.151 598.25 460.171 C 596.37 461.181 594.49 462.191 592.61 463.201 C 590.73 464.201 588.84 465.191 586.94 466.171 C 585.05 467.151 583.15 468.111 581.24 469.081 C 579.34 470.041 577.43 471.001 575.52 471.951 C 573.61 472.901 571.7 473.851 569.79 474.801 C 567.88 475.741 565.96 476.681 564.04 477.611 C 562.12 478.541 560.2 479.461 558.27 480.371 C 556.34 481.281 554.41 482.181 552.47 483.091 C 550.54 483.991 548.61 484.901 546.68 485.801 C 544.74 486.701 542.81 487.591 540.86 488.471 C 538.92 489.351 536.97 490.221 535.02 491.081 C 533.07 491.941 531.11 492.791 529.15 493.621 C 527.19 494.451 525.22 495.271 523.25 496.091 C 521.28 496.901 519.3 497.711 517.33 498.521 C 515.35 499.331 513.38 500.151 511.41 500.951 C 509.43 501.761 507.46 502.561 505.47 503.341 C 503.49 504.121 501.5 504.881 499.5 505.641 C 497.51 506.401 495.51 507.151 493.52 507.901 C 491.52 508.651 489.52 509.401 487.52 510.141 C 485.52 510.881 483.53 511.621 481.52 512.351 C 479.52 513.081 477.51 513.801 475.5 514.511 C 473.49 515.221 471.47 515.931 469.46 516.641 C 467.45 517.341 465.44 518.061 463.43 518.771 C 461.41 519.471 459.4 520.181 457.38 520.861 C 455.36 521.541 453.33 522.201 451.3 522.851 C 449.27 523.501 447.23 524.131 445.19 524.761 C 443.16 525.401 441.12 526.041 439.08 526.671 C 437.05 527.311 435.01 527.951 432.97 528.571 C 430.94 529.201 428.89 529.821 426.85 530.431 C 424.81 531.041 422.76 531.641 420.71 532.241 C 418.66 532.831 416.61 533.421 414.56 534.001 C 412.51 534.591 410.46 535.161 408.4 535.731 C 406.34 536.291 404.28 536.831 402.21 537.371 C 400.15 537.921 398.08 538.451 396.02 538.991 C 393.96 539.531 391.9 540.091 389.84 540.631 C 387.77 541.171 385.71 541.721 383.64 542.241 C 381.57 542.751 379.5 543.251 377.43 543.731 C 375.35 544.221 373.27 544.681 371.19 545.141 C 369.11 545.611 367.03 546.071 364.95 546.531 C 362.87 546.981 360.79 547.441 358.71 547.891 C 356.63 548.331 354.54 548.761 352.46 549.181 C 350.37 549.611 348.28 550.031 346.19 550.431 C 344.1 550.841 342.01 551.241 339.92 551.621 C 337.83 552.011 335.73 552.371 333.63 552.731 C 331.54 553.091 329.44 553.441 327.34 553.781 C 325.24 554.121 323.14 554.461 321.03 554.781 C 318.93 555.101 316.83 555.411 314.72 555.711 C 312.62 556.021 310.51 556.321 308.41 556.621 C 306.3 556.921 304.19 557.211 302.09 557.491 C 299.98 557.781 297.87 558.051 295.76 558.301 C 293.65 558.561 291.54 558.791 289.43 559.021 C 287.32 559.251 285.2 559.451 283.09 559.671 C 280.97 559.881 278.86 560.091 276.74 560.291 C 274.63 560.491 272.51 560.691 270.4 560.861 C 268.28 561.041 266.16 561.201 264.04 561.361 C 261.92 561.511 259.8 561.681 257.68 561.821 C 255.56 561.951 253.43 562.051 251.31 562.151 C 249.18 562.261 247.06 562.341 244.93 562.461 C 242.8 562.571 240.68 562.731 238.56 562.841 C 236.43 562.951 234.3 563.051 232.17 563.111 C 230.04 563.171 227.91 563.201 225.77 563.211 C 223.64 563.231 221.51 563.231 219.37 563.211 C 217.24 563.191 215.11 563.151 212.98 563.081 C 210.85 563.011 208.72 562.901 206.59 562.781 C 204.47 562.671 202.34 562.521 200.22 562.411 C 198.09 562.291 195.97 562.221 193.84 562.111 C 191.72 562.001 189.59 561.891 187.47 561.741 C 185.35 561.591 183.23 561.401 181.12 561.211 C 179 561.021 176.89 560.821 174.77 560.601 C 172.66 560.381 170.55 560.151 168.44 559.901 C 166.33 559.641 164.22 559.371 162.11 559.081 C 160.01 558.791 157.9 558.481 155.8 558.161 C 153.7 557.831 151.6 557.491 149.5 557.121 C 147.41 556.751 145.32 556.371 143.23 555.961 C 141.14 555.551 139.06 555.121 136.98 554.661 C 134.9 554.201 132.83 553.711 130.76 553.191 C 128.69 552.671 126.64 552.121 124.58 551.551 C 122.53 550.971 120.48 550.371 118.44 549.761 C 116.4 549.151 114.36 548.521 112.33 547.861 C 110.31 547.211 108.28 546.551 106.27 545.841 C 104.26 545.131 102.26 544.401 100.28 543.621 C 98.3 542.841 96.33 542.011 94.39 541.151 C 92.44 540.291 90.5 539.381 88.59 538.451 C 86.67 537.521 84.77 536.561 82.89 535.551 C 81.02 534.541 79.16 533.491 77.34 532.391 C 75.52 531.291 73.72 530.141 71.96 528.941 C 70.2 527.741 68.46 526.501 66.79 525.201 C 65.11 523.891 63.48 522.521 61.89 521.101 C 60.31 519.681 58.77 518.201 57.28 516.681 C 55.79 515.161 54.33 513.601 52.96 511.981 C 51.6 510.361 50.28 508.681 49.07 506.941 C 47.86 505.201 46.73 503.391 45.7 501.541 C 44.66 499.691 43.71 497.781 42.86 495.841 C 42.02 493.891 41.27 491.901 40.62 489.881 C 39.97 487.861 39.42 485.801 38.97 483.731 C 38.52 481.661 38.14 479.561 37.91 477.471 C 37.67 475.371 37.56 473.261 37.58 471.151 C 37.61 469.041 37.81 466.931 38.07 464.831 C 38.32 462.731 38.68 460.631 39.09 458.551 C 39.51 456.471 39.99 454.391 40.54 452.341 C 41.1 450.291 41.73 448.251 42.41 446.241 C 43.09 444.221 43.85 442.231 44.64 440.251 C 45.44 438.281 46.3 436.321 47.19 434.391 C 48.07 432.451 49.01 430.531 49.98 428.631 C 50.94 426.731 51.93 424.841 52.97 422.981 C 54 421.121 55.08 419.271 56.19 417.451 C 57.3 415.641 58.45 413.841 59.63 412.071 C 60.81 410.291 62.03 408.541 63.27 406.811 C 64.52 405.081 65.8 403.371 67.1 401.691 C 68.41 400.001 69.75 398.341 71.11 396.711 C 72.48 395.071 73.89 393.461 75.31 391.881 C 76.72 390.301 78.24 388.721 79.62 387.221 C 81.01 385.731 82.59 384.051 83.63 382.921 C 84.66 381.781 85.6 381.191 86.238 380.411 A 344.4 344.4 0 0 1 84.098 363.561 C 82.49 364.881 80.55 366.211 78.87 367.501 C 77.2 368.791 75.81 369.961 74.25 371.301 C 72.69 372.641 71.07 374.101 69.51 375.551 C 67.96 376.991 66.43 378.491 64.9 379.981 C 63.37 381.471 61.86 382.971 60.35 384.481 C 58.84 385.991 57.34 387.501 55.85 389.031 C 54.36 390.561 52.87 392.081 51.41 393.641 C 49.95 395.191 48.51 396.761 47.09 398.351 C 45.67 399.941 44.27 401.551 42.9 403.181 C 41.52 404.811 40.17 406.461 38.84 408.131 C 37.52 409.801 36.21 411.491 34.94 413.191 C 33.66 414.901 32.41 416.631 31.19 418.381 C 29.97 420.131 28.77 421.891 27.6 423.681 C 26.43 425.461 25.28 427.261 24.16 429.071 C 23.04 430.881 21.95 432.721 20.88 434.561 C 19.82 436.411 18.79 438.281 17.78 440.161 C 16.78 442.041 15.81 443.941 14.87 445.851 C 13.93 447.771 13.02 449.691 12.15 451.641 C 11.28 453.591 10.45 455.551 9.66 457.531 C 8.87 459.511 8.12 461.501 7.43 463.521 C 6.74 465.531 6.1 467.561 5.52 469.611 C 4.95 471.661 4.43 473.721 4 475.801 C 3.57 477.881 3.21 479.971 2.94 482.081 C 2.66 484.181 2.47 486.301 2.33 488.421 C 2.2 490.541 2.15 492.681 2.15 494.801 C 2.15 496.931 2.21 499.061 2.36 501.181 C 2.51 503.301 2.72 505.421 3.04 507.521 C 3.36 509.611 3.77 511.701 4.28 513.761 C 4.78 515.821 5.39 517.861 6.07 519.871 C 6.75 521.881 7.52 523.871 8.35 525.831 C 9.17 527.801 10.07 529.731 11.02 531.641 C 11.97 533.541 12.98 535.421 14.05 537.261 C 15.12 539.101 16.26 540.901 17.44 542.671 C 18.62 544.441 19.87 546.171 21.15 547.871 C 22.43 549.571 23.76 551.231 25.13 552.861 C 26.5 554.491 27.91 556.091 29.38 557.641 C 30.84 559.181 32.35 560.691 33.9 562.141 C 35.46 563.591 37.07 564.981 38.71 566.351 C 40.35 567.711 42.03 569.021 43.72 570.321 C 45.42 571.611 47.13 572.871 48.88 574.101 C 50.62 575.321 52.39 576.511 54.19 577.661 C 55.98 578.801 57.81 579.911 59.65 580.981 C 61.49 582.061 63.35 583.091 65.23 584.101 C 67.11 585.101 69.01 586.071 70.93 587.011 C 72.84 587.951 74.77 588.861 76.71 589.741 C 78.65 590.631 80.6 591.491 82.56 592.331 C 84.52 593.161 86.5 593.971 88.48 594.761 C 90.46 595.551 92.45 596.311 94.45 597.061 C 96.45 597.801 98.45 598.541 100.46 599.231 C 102.48 599.921 104.51 600.571 106.55 601.191 C 108.58 601.821 110.64 602.391 112.69 602.971 C 114.74 603.551 116.8 604.121 118.86 604.661 C 120.92 605.201 122.99 605.731 125.06 606.231 C 127.13 606.721 129.21 607.191 131.29 607.651 C 133.37 608.101 135.45 608.531 137.54 608.941 C 139.63 609.351 141.72 609.741 143.82 610.111 C 152.1 611.571 160.38 613.431 168.66 615.251 C 168.07 617.411 167.52 619.701 166.9 621.721 C 166.28 623.741 165.63 625.431 164.95 627.371 C 164.26 629.311 163.51 631.361 162.79 633.361 C 162.06 635.371 161.33 637.371 160.6 639.381 C 159.87 641.381 159.14 643.391 158.41 645.391 C 157.68 647.401 156.96 649.401 156.22 651.401 C 155.49 653.411 154.76 655.411 154.02 657.411 C 153.27 659.411 152.52 661.401 151.76 663.401 C 150.99 665.391 150.21 667.371 149.44 669.361 C 148.66 671.351 147.88 673.331 147.11 675.321 C 146.33 677.311 145.57 679.301 144.81 681.291 C 144.04 683.281 143.27 685.271 142.5 687.261 C 141.74 689.251 140.95 691.241 140.2 693.231 C 139.46 695.221 138.61 697.341 138.02 699.221 C 137.42 701.101 136.91 703.121 136.64 704.491 C 136.37 705.871 136.37 706.501 136.4 707.461 C 136.42 708.431 136.53 709.401 136.77 710.291 C 137.01 711.181 137.37 712.051 137.84 712.821 C 138.31 713.591 138.92 714.301 139.6 714.891 C 140.29 715.481 141.09 715.981 141.94 716.371 C 142.78 716.761 143.73 717.041 144.68 717.231 C 145.63 717.431 146.12 717.581 147.65 717.531 C 149.19 717.491 151.79 717.291 153.86 716.961 C 155.93 716.621 158.02 716.091 160.07 715.541 C 162.13 714.991 164.16 714.341 166.18 713.661 C 168.2 712.981 170.18 712.211 172.17 711.451 C 174.17 710.691 176.14 709.881 178.13 709.111 C 180.11 708.331 182.1 707.571 184.09 706.811 C 186.08 706.041 188.08 705.291 190.07 704.521 C 192.06 703.741 194.04 702.961 196.02 702.171 C 198 701.381 199.97 700.571 201.95 699.771 C 203.93 698.971 205.91 698.181 207.89 697.391 C 209.87 696.591 211.85 695.811 213.82 695.001 C 215.79 694.191 217.76 693.371 219.72 692.541 C 221.69 691.711 223.64 690.861 225.6 690.021 C 227.56 689.171 229.51 688.311 231.46 687.451 C 233.41 686.591 235.36 685.721 237.31 684.861 C 239.26 683.991 241.2 683.121 243.15 682.261 C 245.1 681.391 247.05 680.521 249 679.651 C 250.94 678.781 252.89 677.911 254.83 677.021 C 256.77 676.131 258.7 675.241 260.64 674.331 C 262.57 673.431 264.49 672.501 266.42 671.601 C 268.35 670.691 270.28 669.791 272.22 668.881 C 274.15 667.971 276.08 667.071 278 666.151 C 279.93 665.241 281.86 664.311 283.78 663.391 C 285.69 662.461 287.65 661.511 289.51 660.601 C 291.38 659.691 293.35 658.701 294.96 657.921 C 296.58 657.151 298.08 656.441 299.21 655.951 C 300.35 655.461 300.93 655.301 301.79 654.971 C 303.88 655.811 306.1 656.681 308.07 657.481 C 310.04 658.281 311.7 658.991 313.61 659.761 C 315.52 660.541 317.55 661.351 319.53 662.131 C 321.51 662.901 323.51 663.671 325.5 664.421 C 327.5 665.181 329.5 665.921 331.51 666.641 C 333.51 667.361 335.53 668.061 337.55 668.731 C 339.58 669.401 341.61 670.041 343.65 670.661 C 345.69 671.281 347.74 671.861 349.8 672.431 C 351.85 673.011 353.91 673.571 355.97 674.121 C 358.03 674.671 360.09 675.211 362.16 675.741 C 364.23 676.261 366.29 676.771 368.37 677.251 C 370.44 677.731 372.53 678.181 374.61 678.611 C 376.7 679.041 378.79 679.441 380.88 679.821 C 382.97 680.211 385.06 680.581 387.16 680.931 C 389.26 681.281 391.36 681.601 393.47 681.891 C 395.57 682.191 397.68 682.461 399.79 682.721 C 401.9 682.981 404.01 683.231 406.13 683.441 C 408.24 683.651 410.36 683.831 412.49 683.981 C 414.61 684.131 416.74 684.231 418.87 684.351 C 421 684.461 423.13 684.581 425.26 684.681 C 427.39 684.781 429.52 684.891 431.65 684.941 C 433.78 685.001 435.91 685.031 438.05 685.011 C 440.18 684.991 442.31 684.931 444.43 684.841 C 446.56 684.751 448.68 684.611 450.81 684.471 C 452.93 684.341 455.05 684.211 457.17 684.041 C 459.29 683.871 461.41 683.691 463.52 683.471 C 465.64 683.251 467.74 682.971 469.85 682.721 C 471.96 682.461 474.07 682.211 476.18 681.941 C 478.29 681.661 480.4 681.391 482.5 681.081 C 484.6 680.761 486.7 680.411 488.79 680.031 C 490.89 679.651 492.97 679.241 495.06 678.821 C 497.15 678.391 499.23 677.951 501.31 677.481 C 503.39 677.011 505.46 676.521 507.53 676.001 C 509.6 675.491 511.66 674.961 513.72 674.401 C 515.78 673.841 517.83 673.261 519.88 672.661 C 521.92 672.061 523.96 671.431 525.99 670.781 C 528.02 670.131 530.04 669.461 532.06 668.781 C 534.08 668.101 536.09 667.401 538.1 666.691 C 540.11 665.981 542.12 665.271 544.12 664.531 C 546.12 663.791 548.11 663.031 550.09 662.231 C 552.07 661.441 554.03 660.611 555.99 659.761 C 557.95 658.921 559.89 658.041 561.83 657.161 C 563.77 656.271 565.71 655.371 567.63 654.461 C 569.56 653.551 571.48 652.631 573.39 651.681 C 575.3 650.731 577.19 649.761 579.08 648.761 C 580.96 647.771 582.83 646.751 584.69 645.711 C 586.56 644.671 588.41 643.621 590.25 642.541 C 592.09 641.461 593.91 640.351 595.72 639.231 C 597.54 638.111 599.33 636.961 601.13 635.811 C 602.92 634.651 604.72 633.501 606.5 632.321 C 608.27 631.141 610.04 629.951 611.78 628.721 C 613.52 627.501 615.24 626.231 616.95 624.951 C 618.66 623.681 620.35 622.381 622.04 621.081 C 623.73 619.781 625.42 618.481 627.09 617.161 C 628.77 615.841 630.43 614.511 632.08 613.161 C 633.73 611.811 635.36 610.431 636.99 609.061 C 638.62 607.681 640.24 606.291 641.85 604.891 C 643.45 603.491 645.06 602.091 646.63 600.651 C 648.21 599.221 649.77 597.761 651.31 596.281 C 652.84 594.811 654.36 593.301 655.86 591.791 C 657.37 590.281 658.85 588.751 660.32 587.201 C 661.79 585.661 663.24 584.091 664.68 582.521 C 666.12 580.941 667.54 579.361 668.95 577.761 C 670.37 576.171 671.78 574.571 673.16 572.951 C 674.55 571.331 675.92 569.701 677.28 568.051 C 678.64 566.411 679.98 564.751 681.31 563.091 C 682.64 561.421 683.97 559.751 685.27 558.061 C 686.58 556.381 687.87 554.681 689.14 552.971 C 690.41 551.251 691.65 549.521 692.89 547.781 C 694.12 546.041 695.34 544.291 696.54 542.531 C 697.75 540.771 698.94 539.001 700.11 537.221 C 701.28 535.441 702.44 533.651 703.58 531.851 C 704.72 530.041 705.84 528.231 706.95 526.411 C 708.06 524.591 709.14 522.751 710.22 520.911 C 711.3 519.071 712.37 517.231 713.42 515.381 C 714.48 513.521 715.53 511.671 716.55 509.791 C 717.56 507.921 718.55 506.031 719.53 504.141 C 720.51 502.241 721.47 500.331 722.41 498.421 C 723.36 496.511 724.3 494.591 725.22 492.671 C 726.14 490.751 727.04 488.811 727.93 486.871 C 728.82 484.931 729.69 482.991 730.53 481.031 C 731.38 479.071 732.2 477.111 733 475.131 C 733.8 473.151 734.57 471.161 735.34 469.181 C 736.11 467.191 736.88 465.201 737.63 463.201 C 738.37 461.201 739.11 459.201 739.81 457.191 C 740.51 455.171 741.18 453.151 741.84 451.121 C 742.49 449.091 743.12 447.051 743.75 445.011 C 744.38 442.981 745.01 440.941 745.61 438.891 C 746.22 436.851 746.81 434.801 747.37 432.741 C 747.93 430.681 748.46 428.621 748.98 426.551 C 749.49 424.481 749.98 422.401 750.47 420.331 C 750.95 418.251 751.4 416.161 751.88 414.091 L 754.92 400.601 L 767.68 387.951 C 769.21 386.471 770.74 384.971 772.25 383.471 C 773.77 381.971 775.28 380.471 776.79 378.961 C 778.3 377.451 779.8 375.941 781.3 374.421 C 782.8 372.901 784.3 371.381 785.77 369.841 C 787.25 368.301 788.72 366.751 790.17 365.191 C 791.63 363.631 793.06 362.061 794.49 360.481 C 795.93 358.901 797.36 357.321 798.77 355.721 C 800.18 354.121 801.58 352.511 802.96 350.891 C 804.33 349.261 805.69 347.611 807.04 345.961 C 808.38 344.311 809.72 342.641 811.04 340.971 C 812.36 339.301 813.68 337.621 814.98 335.931 C 816.28 334.241 817.57 332.541 818.83 330.821 C 820.1 329.111 821.36 327.381 822.59 325.641 C 823.82 323.901 825.02 322.141 826.22 320.371 C 827.42 318.611 828.61 316.841 829.78 315.061 C 830.96 313.281 832.14 311.501 833.29 309.701 C 834.44 307.911 835.58 306.101 836.69 304.281 C 837.8 302.461 838.88 300.621 839.93 298.771 C 840.99 296.921 842.01 295.041 843.01 293.161 C 844.01 291.281 844.98 289.381 845.94 287.471 C 846.91 285.571 847.87 283.661 848.8 281.751 C 849.73 279.831 850.65 277.901 851.53 275.961 C 852.41 274.021 853.26 272.061 854.06 270.091 C 854.86 268.121 855.63 266.131 856.35 264.121 C 857.07 262.121 857.76 260.101 858.39 258.071 C 859.03 256.041 859.62 254.001 860.16 251.941 C 860.7 249.881 861.18 247.811 861.61 245.731 C 862.05 243.651 862.43 241.551 862.76 239.461 C 863.09 237.361 863.36 235.251 863.59 233.141 C 863.82 231.031 863.98 228.911 864.11 226.801 C 864.25 224.681 864.37 222.571 864.41 220.461 C 864.45 218.351 864.44 216.251 864.35 214.141 C 864.27 212.031 864.1 209.921 863.89 207.811 C 863.69 205.711 863.43 203.591 863.11 201.501 C 862.79 199.401 862.4 197.301 861.97 195.231 C 861.53 193.161 861 191.041 860.47 189.051 C 859.95 187.061 859.29 184.891 858.82 183.301 C 858.36 181.701 857.98 180.541 857.67 179.461 C 857.35 178.371 857.18 177.681 856.94 176.791 C 857.81 174.721 858.8 172.541 859.55 170.571 C 860.3 168.591 860.92 166.911 861.42 164.941 C 861.93 162.971 862.33 160.841 862.58 158.751 C 862.84 156.671 862.94 154.531 862.94 152.411 C 862.94 150.301 862.84 148.171 862.58 146.081 C 862.31 143.991 861.91 141.901 861.35 139.881 C 860.79 137.851 860.06 135.851 859.21 133.921 C 858.37 131.981 857.37 130.091 856.28 128.291 C 855.19 126.481 853.98 124.721 852.66 123.071 C 851.35 121.421 849.92 119.841 848.39 118.401 C 846.85 116.961 845.19 115.641 843.45 114.451 C 841.71 113.261 839.86 112.201 837.96 111.261 C 836.07 110.331 834.09 109.521 832.09 108.851 C 830.09 108.181 828.03 107.621 825.96 107.231 C 823.89 106.841 821.77 106.581 819.67 106.521 C 817.57 106.451 815.44 106.561 813.36 106.831 C 811.28 107.111 809.2 107.561 807.19 108.171 C 805.18 108.771 803.19 109.541 801.3 110.451 C 799.41 111.361 797.58 112.451 795.83 113.631 C 794.08 114.811 792.39 116.131 790.8 117.521 C 789.2 118.911 787.66 120.391 786.26 121.961 C 784.86 123.541 783.54 125.221 782.38 126.971 C 781.21 128.731 780.16 130.591 779.25 132.491 C 778.33 134.391 777.54 136.371 776.89 138.381 C 776.24 140.381 775.71 142.451 775.34 144.521 C 774.96 146.591 774.7 148.701 774.62 150.801 C 774.54 152.891 774.62 155.011 774.86 157.091 C 775.1 159.181 775.52 161.271 776.06 163.301 C 776.6 165.341 777.3 167.351 778.11 169.301 C 778.92 171.251 779.85 173.181 780.91 175.001 C 781.98 176.821 783.17 178.581 784.48 180.221 C 785.8 181.861 787.27 183.401 788.82 184.831 C 790.37 186.271 792.04 187.601 793.77 188.821 C 795.49 190.041 797.3 191.191 799.16 192.161 C 801.03 193.141 802.97 194.001 804.96 194.671 C 806.95 195.341 809.01 195.841 811.08 196.201 C 813.16 196.561 815.28 196.761 817.39 196.821 C 819.49 196.871 821.63 196.771 823.71 196.531 C 825.79 196.301 827.93 195.821 829.85 195.411 C 831.77 195.001 833.99 194.371 835.21 194.071 C 836.44 193.771 836.43 193.751 837.2 193.601 C 837.97 193.451 838.95 193.311 839.83 193.161 Z M 369.73 598.141 C 373.76 596.931 377.79 595.471 381.82 594.461 C 383.81 593.951 385.93 593.441 387.99 592.921 C 390.05 592.391 392.12 591.841 394.18 591.291 C 396.24 590.741 398.3 590.181 400.36 589.621 C 402.42 589.061 404.47 588.501 406.53 587.931 C 408.59 587.371 410.64 586.801 412.7 586.231 C 414.75 585.661 416.81 585.091 418.86 584.501 C 420.91 583.911 422.95 583.311 425 582.711 C 427.04 582.101 429.08 581.481 431.12 580.851 C 433.15 580.221 435.19 579.571 437.22 578.921 C 439.25 578.271 441.28 577.601 443.3 576.941 C 445.33 576.271 447.35 575.601 449.38 574.921 C 451.4 574.251 453.42 573.571 455.44 572.901 C 457.47 572.221 459.49 571.541 461.51 570.851 C 463.53 570.161 465.54 569.471 467.56 568.761 C 469.57 568.061 471.57 567.341 473.58 566.611 C 475.58 565.881 477.58 565.141 479.58 564.401 C 481.59 563.671 483.59 562.941 485.59 562.191 C 487.58 561.441 489.58 560.701 491.57 559.931 C 493.56 559.161 495.54 558.371 497.52 557.571 C 499.49 556.771 501.46 555.951 503.43 555.141 C 505.41 554.321 507.38 553.511 509.35 552.701 C 511.32 551.891 513.3 551.081 515.27 550.271 C 517.24 549.451 519.21 548.631 521.18 547.811 C 523.14 546.981 525.11 546.161 527.07 545.321 C 529.03 544.471 530.98 543.611 532.92 542.751 C 534.87 541.881 536.81 541.001 538.76 540.121 C 540.7 539.251 542.65 538.371 544.59 537.491 C 546.53 536.611 548.47 535.721 550.4 534.811 C 552.33 533.911 554.25 532.991 556.17 532.061 C 558.09 531.131 560 530.181 561.91 529.241 C 563.83 528.291 565.74 527.341 567.64 526.391 C 569.55 525.441 571.46 524.481 573.37 523.531 C 575.27 522.571 577.18 521.611 579.08 520.641 C 580.98 519.681 582.88 518.711 584.78 517.731 C 586.67 516.741 588.55 515.751 590.44 514.751 C 592.32 513.751 594.19 512.731 596.07 511.721 C 597.94 510.701 599.82 509.681 601.68 508.661 C 603.55 507.631 605.42 506.601 607.28 505.561 C 609.15 504.531 611.01 503.501 612.87 502.461 C 614.73 501.421 616.59 500.381 618.45 499.321 C 620.3 498.271 622.15 497.201 623.99 496.141 C 625.84 495.071 627.69 493.991 629.52 492.921 C 631.35 491.851 633.25 490.741 634.99 489.741 C 636.74 488.731 638.76 487.591 639.99 486.911 C 641.62 486.011 643.24 485.371 644.87 484.471 C 641.8 490.101 638.72 496.141 635.65 500.641 C 634.45 502.401 633.21 504.141 631.97 505.871 C 630.73 507.611 629.47 509.331 628.2 511.041 C 626.93 512.751 625.66 514.461 624.36 516.151 C 623.05 517.841 621.74 519.511 620.39 521.171 C 619.05 522.821 617.68 524.451 616.29 526.071 C 614.9 527.691 613.48 529.281 612.06 530.871 C 610.64 532.461 609.21 534.041 607.76 535.601 C 606.31 537.161 604.85 538.711 603.36 540.241 C 601.88 541.771 600.37 543.281 598.85 544.771 C 597.33 546.271 595.79 547.751 594.23 549.191 C 592.67 550.641 591.08 552.061 589.47 553.461 C 587.87 554.871 586.24 556.251 584.6 557.601 C 582.96 558.961 581.3 560.301 579.62 561.611 C 577.94 562.921 576.24 564.211 574.52 565.471 C 572.8 566.731 571.05 567.961 569.3 569.171 C 567.55 570.381 565.78 571.571 563.99 572.741 C 562.21 573.921 560.42 575.071 558.62 576.211 C 556.81 577.341 554.99 578.451 553.15 579.541 C 551.32 580.621 549.46 581.671 547.59 582.691 C 545.72 583.711 543.83 584.701 541.93 585.661 C 540.02 586.611 538.1 587.541 536.17 588.451 C 534.24 589.351 532.3 590.221 530.34 591.081 C 528.39 591.931 526.42 592.761 524.45 593.561 C 522.48 594.371 520.5 595.161 518.5 595.921 C 516.51 596.671 514.51 597.411 512.49 598.101 C 510.48 598.801 508.45 599.461 506.42 600.101 C 504.38 600.731 502.34 601.331 500.29 601.911 C 498.24 602.501 496.18 603.061 494.12 603.591 C 492.05 604.121 489.98 604.631 487.9 605.101 C 485.83 605.561 483.74 605.971 481.65 606.361 C 479.56 606.761 477.46 607.111 475.36 607.451 C 473.26 607.801 471.16 608.131 469.06 608.431 C 466.95 608.721 464.85 608.991 462.74 609.221 C 460.62 609.451 458.51 609.661 456.39 609.801 C 454.27 609.951 452.14 610.031 450.01 610.101 C 447.88 610.161 445.75 610.161 443.62 610.181 C 441.49 610.191 439.35 610.191 437.22 610.191 C 435.09 610.181 432.95 610.191 430.82 610.161 C 428.69 610.131 426.56 610.111 424.43 610.011 C 422.31 609.921 420.19 609.781 418.07 609.601 C 415.95 609.421 413.84 609.181 411.73 608.921 C 409.63 608.651 407.52 608.351 405.43 608.001 C 403.33 607.661 401.24 607.281 399.15 606.871 C 397.06 606.461 394.98 606.021 392.9 605.541 C 390.83 605.061 388.75 604.551 386.7 604.011 C 384.65 603.471 382.53 602.881 380.59 602.301 C 376.97 601.221 373.35 599.521 369.73 598.141 Z" fill="url(#tsg)"/>
    <path d="M 694.54 116.401 C 721.55 113.631 749 116.991 774.94 124.831 L 769.01 138.301 C 748.28 132.231 726.56 129.191 704.95 130.251 A 341.7 341.7 0 0 0 694.54 116.401 Z" fill="url(#tsg)"/>
  </g>
  <circle cx="820.02" cy="152.701" r="46.5" fill="url(#tsg)"/>
  <circle cx="316.42" cy="335.401" r="35.70" fill="url(#tsg)"/>
  <circle cx="429.82" cy="335.401" r="35.70" fill="url(#tsg)"/>
  <circle cx="543.22" cy="335.401" r="35.70" fill="url(#tsg)"/>
</svg>