<svg xmlns="http://www.w3.org/2000/svg" viewBox="0 0 868.75 868.75" width="512" height="512">
	<defs>
		<linearGradient id="tsg" gradientUnits="userSpaceOnUse" x1="88.16" y1="77.55" x2="606.13" y2="794.4">
			<stop offset="0" stop-color="#38EF7D"/>
			<stop offset="1" stop-color="#11998E"/>
		</linearGradient>
	</defs>
	<g fill-rule="evenodd">
		<path d="M 753.05 396.62 A 326.4 326.4 0 1 0 177.72 614.18 A 495.65 495.65 0 0 0 284.97 612.89 A 246.1 246.1 0 1 1 671.15 464.41 A 641.66 641.66 0 0 0 753.05 396.62 Z" fill="url(#tsg)"/>
		<path d="M 839.83 267.69 C 840.22 269.9 840.72 272.22 840.99 274.31 C 841.27 276.41 841.42 278.2 841.5 280.24 C 841.57 282.28 841.57 284.45 841.45 286.55 C 841.33 288.65 841.08 290.77 840.79 292.87 C 840.5 294.97 840.12 297.06 839.69 299.14 C 839.26 301.22 838.75 303.29 838.21 305.35 C 837.67 307.4 837.08 309.45 836.44 311.48 C 835.81 313.52 835.13 315.54 834.39 317.54 C 833.66 319.54 832.87 321.52 832.05 323.48 C 831.23 325.45 830.37 327.4 829.48 329.34 C 828.58 331.27 827.66 333.19 826.69 335.09 C 825.72 336.99 824.7 338.86 823.66 340.72 C 822.62 342.58 821.54 344.42 820.46 346.26 C 819.37 348.09 818.28 349.92 817.15 351.73 C 816.01 353.53 814.84 355.31 813.64 357.08 C 812.45 358.84 811.21 360.58 809.97 362.31 C 808.73 364.05 807.47 365.77 806.2 367.48 C 804.93 369.2 803.65 370.9 802.35 372.6 C 801.06 374.29 799.75 375.98 798.43 377.65 C 797.1 379.32 795.76 380.98 794.41 382.62 C 793.05 384.27 791.67 385.9 790.29 387.52 C 788.9 389.13 787.49 390.74 786.08 392.33 C 784.66 393.92 783.23 395.51 781.79 397.07 C 780.34 398.64 778.87 400.18 777.39 401.72 C 775.91 403.26 774.41 404.77 772.91 406.29 C 771.41 407.81 769.91 409.32 768.4 410.83 C 766.89 412.34 765.38 413.85 763.86 415.34 C 762.34 416.84 760.82 418.34 759.28 419.81 C 757.74 421.29 756.19 422.76 754.63 424.21 C 753.07 425.66 751.49 427.09 749.91 428.52 C 748.33 429.95 746.74 431.38 745.15 432.8 C 743.55 434.21 741.95 435.62 740.34 437.02 C 738.73 438.41 737.11 439.8 735.49 441.18 C 733.86 442.56 732.23 443.94 730.59 445.3 C 728.95 446.66 727.29 448 725.63 449.34 C 723.98 450.68 722.32 452.03 720.66 453.37 C 719 454.71 717.35 456.05 715.68 457.38 C 714.02 458.72 712.35 460.04 710.67 461.36 C 708.99 462.67 707.3 463.97 705.6 465.27 C 703.91 466.56 702.2 467.85 700.5 469.12 C 698.79 470.4 697.08 471.68 695.36 472.94 C 693.64 474.2 691.91 475.45 690.18 476.7 C 688.45 477.95 686.71 479.19 684.98 480.43 C 683.24 481.67 681.51 482.91 679.77 484.14 C 678.03 485.38 676.29 486.62 674.54 487.84 C 672.8 489.06 671.04 490.28 669.28 491.48 C 667.52 492.69 665.75 493.88 663.98 495.07 C 662.21 496.26 660.43 497.44 658.65 498.62 C 656.87 499.79 655.1 500.97 653.31 502.13 C 651.52 503.3 649.73 504.45 647.92 505.59 C 646.12 506.73 644.31 507.86 642.49 508.98 C 640.68 510.1 638.86 511.21 637.03 512.32 C 635.21 513.42 633.37 514.5 631.54 515.59 C 629.7 516.68 627.87 517.76 626.03 518.85 C 624.19 519.93 622.36 521.03 620.52 522.11 C 618.68 523.18 616.84 524.26 614.99 525.32 C 613.15 526.39 611.29 527.45 609.44 528.5 C 607.58 529.55 605.73 530.59 603.86 531.63 C 601.99 532.66 600.12 533.68 598.25 534.7 C 596.37 535.71 594.49 536.72 592.61 537.73 C 590.73 538.73 588.84 539.72 586.94 540.7 C 585.05 541.68 583.15 542.64 581.24 543.61 C 579.34 544.57 577.43 545.53 575.52 546.48 C 573.61 547.43 571.7 548.38 569.79 549.33 C 567.88 550.27 565.96 551.21 564.04 552.14 C 562.12 553.07 560.2 553.99 558.27 554.9 C 556.34 555.81 554.41 556.71 552.47 557.62 C 550.54 558.52 548.61 559.43 546.68 560.33 C 544.74 561.23 542.81 562.12 540.86 563 C 538.92 563.88 536.97 564.75 535.02 565.61 C 533.07 566.47 531.11 567.32 529.15 568.15 C 527.19 568.98 525.22 569.8 523.25 570.62 C 521.28 571.43 519.3 572.24 517.33 573.05 C 515.35 573.86 513.38 574.68 511.41 575.48 C 509.43 576.29 507.46 577.09 505.47 577.87 C 503.49 578.65 501.5 579.41 499.5 580.17 C 497.51 580.93 495.51 581.68 493.52 582.43 C 491.52 583.18 489.52 583.93 487.52 584.67 C 485.52 585.41 483.53 586.15 481.52 586.88 C 479.52 587.61 477.51 588.33 475.5 589.04 C 473.49 589.75 471.47 590.46 469.46 591.17 C 467.45 591.87 465.44 592.59 463.43 593.3 C 461.41 594 459.4 594.71 457.38 595.39 C 455.36 596.07 453.33 596.73 451.3 597.38 C 449.27 598.03 447.23 598.66 445.19 599.29 C 443.16 599.93 441.12 600.57 439.08 601.2 C 437.05 601.84 435.01 602.48 432.97 603.1 C 430.94 603.73 428.89 604.35 426.85 604.96 C 424.81 605.57 422.76 606.17 420.71 606.77 C 418.66 607.36 416.61 607.95 414.56 608.53 C 412.51 609.12 410.46 609.69 408.4 610.26 C 406.34 610.82 404.28 611.36 402.21 611.9 C 400.15 612.45 398.08 612.98 396.02 613.52 C 393.96 614.06 391.9 614.62 389.84 615.16 C 387.77 615.7 385.71 616.25 383.64 616.77 C 381.57 617.28 379.5 617.78 377.43 618.26 C 375.35 618.75 373.27 619.21 371.19 619.67 C 369.11 620.14 367.03 620.6 364.95 621.06 C 362.87 621.51 360.79 621.97 358.71 622.42 C 356.63 622.86 354.54 623.29 352.46 623.71 C 350.37 624.14 348.28 624.56 346.19 624.96 C 344.1 625.37 342.01 625.77 339.92 626.15 C 337.83 626.54 335.73 626.9 333.63 627.26 C 331.54 627.62 329.44 627.97 327.34 628.31 C 325.24 628.65 323.14 628.99 321.03 629.31 C 318.93 629.63 316.83 629.94 314.72 630.24 C 312.62 630.55 310.51 630.85 308.41 631.15 C 306.3 631.45 304.19 631.74 302.09 632.02 C 299.98 632.31 297.87 632.58 295.76 632.83 C 293.65 633.09 291.54 633.32 289.43 633.55 C 287.32 633.78 285.2 633.98 283.09 634.2 C 280.97 634.41 278.86 634.62 276.74 634.82 C 274.63 635.02 272.51 635.22 270.4 635.39 C 268.28 635.57 266.16 635.73 264.04 635.89 C 261.92 636.04 259.8 636.21 257.68 636.35 C 255.56 636.48 253.43 636.58 251.31 636.68 C 249.18 636.79 247.06 636.87 244.93 636.99 C 242.8 637.1 240.68 637.26 238.56 637.37 C 236.43 637.48 234.3 637.58 232.17 637.64 C 230.04 637.7 227.91 637.73 225.77 637.74 C 223.64 637.76 221.51 637.76 219.37 637.74 C 217.24 637.72 215.11 637.68 212.98 637.61 C 210.85 637.54 208.72 637.43 206.59 637.31 C 204.47 637.2 202.34 637.05 200.22 636.94 C 198.09 636.82 195.97 636.75 193.84 636.64 C 191.72 636.53 189.59 636.42 187.47 636.27 C 185.35 636.12 183.23 635.93 181.12 635.74 C 179 635.55 176.89 635.35 174.77 635.13 C 172.66 634.91 170.55 634.68 168.44 634.43 C 166.33 634.17 164.22 633.9 162.11 633.61 C 160.01 633.32 157.9 633.01 155.8 632.69 C 153.7 632.36 151.6 632.02 149.5 631.65 C 147.41 631.28 145.32 630.9 143.23 630.49 C 141.14 630.08 139.06 629.65 136.98 629.19 C 134.9 628.73 132.83 628.24 130.76 627.72 C 128.69 627.2 126.64 626.65 124.58 626.08 C 122.53 625.5 120.48 624.9 118.44 624.29 C 116.4 623.68 114.36 623.05 112.33 622.39 C 110.31 621.74 108.28 621.08 106.27 620.37 C 104.26 619.66 102.26 618.93 100.28 618.15 C 98.3 617.37 96.33 616.54 94.39 615.68 C 92.44 614.82 90.5 613.91 88.59 612.98 C 86.67 612.05 84.77 611.09 82.89 610.08 C 81.02 609.07 79.16 608.02 77.34 606.92 C 75.52 605.82 73.72 604.67 71.96 603.47 C 70.2 602.27 68.46 601.03 66.79 599.73 C 65.11 598.42 63.48 597.05 61.89 595.63 C 60.31 594.21 58.77 592.73 57.28 591.21 C 55.79 589.69 54.33 588.13 52.96 586.51 C 51.6 584.89 50.28 583.21 49.07 581.47 C 47.86 579.73 46.73 577.92 45.7 576.07 C 44.66 574.22 43.71 572.31 42.86 570.37 C 42.02 568.42 41.27 566.43 40.62 564.41 C 39.97 562.39 39.42 560.33 38.97 558.26 C 38.52 556.19 38.14 554.09 37.91 552 C 37.67 549.9 37.56 547.79 37.58 545.68 C 37.61 543.57 37.81 541.46 38.07 539.36 C 38.32 537.26 38.68 535.16 39.09 533.08 C 39.51 531 39.99 528.92 40.54 526.87 C 41.1 524.82 41.73 522.78 42.41 520.77 C 43.09 518.75 43.85 516.76 44.64 514.78 C 45.44 512.81 46.3 510.85 47.19 508.92 C 48.07 506.98 49.01 505.06 49.98 503.16 C 50.94 501.26 51.93 499.37 52.97 497.51 C 54 495.65 55.08 493.8 56.19 491.98 C 57.3 490.17 58.45 488.37 59.63 486.6 C 60.81 484.82 62.03 483.07 63.27 481.34 C 64.52 479.61 65.8 477.9 67.1 476.22 C 68.41 474.53 69.75 472.87 71.11 471.24 C 72.48 469.6 73.89 467.99 75.31 466.41 C 76.72 464.83 78.24 463.25 79.62 461.75 C 81.01 460.26 82.59 458.58 83.63 457.45 C 84.66 456.31 85.6 455.72 86.238 454.94 A 344.4 344.4 0 0 1 84.098 438.09 C 82.49 439.41 80.55 440.74 78.87 442.03 C 77.2 443.32 75.81 444.49 74.25 445.83 C 72.69 447.17 71.07 448.63 69.51 450.08 C 67.96 451.52 66.43 453.02 64.9 454.51 C 63.37 456 61.86 457.5 60.35 459.01 C 58.84 460.52 57.34 462.03 55.85 463.56 C 54.36 465.09 52.87 466.61 51.41 468.17 C 49.95 469.72 48.51 471.29 47.09 472.88 C 45.67 474.47 44.27 476.08 42.9 477.71 C 41.52 479.34 40.17 480.99 38.84 482.66 C 37.52 484.33 36.21 486.02 34.94 487.72 C 33.66 489.43 32.41 491.16 31.19 492.91 C 29.97 494.66 28.77 496.42 27.6 498.21 C 26.43 499.99 25.28 501.79 24.16 503.6 C 23.04 505.41 21.95 507.25 20.88 509.09 C 19.82 510.94 18.79 512.81 17.78 514.69 C 16.78 516.57 15.81 518.47 14.87 520.38 C 13.93 522.3 13.02 524.22 12.15 526.17 C 11.28 528.12 10.45 530.08 9.66 532.06 C 8.87 534.04 8.12 536.03 7.43 538.05 C 6.74 540.06 6.1 542.09 5.52 544.14 C 4.95 546.19 4.43 548.25 4 550.33 C 3.57 552.41 3.21 554.5 2.94 556.61 C 2.66 558.71 2.47 560.83 2.33 562.95 C 2.2 565.07 2.15 567.21 2.15 569.33 C 2.15 571.46 2.21 573.59 2.36 575.71 C 2.51 577.83 2.72 579.95 3.04 582.05 C 3.36 584.14 3.77 586.23 4.28 588.29 C 4.78 590.35 5.39 592.39 6.07 594.4 C 6.75 596.41 7.52 598.4 8.35 600.36 C 9.17 602.33 10.07 604.26 11.02 606.17 C 11.97 608.07 12.98 609.95 14.05 611.79 C 15.12 613.63 16.26 615.43 17.44 617.2 C 18.62 618.97 19.87 620.7 21.15 622.4 C 22.43 624.1 23.76 625.76 25.13 627.39 C 26.5 629.02 27.91 630.62 29.38 632.17 C 30.84 633.71 32.35 635.22 33.9 636.67 C 35.46 638.12 37.07 639.51 38.71 640.88 C 40.35 642.24 42.03 643.55 43.72 644.85 C 45.42 646.14 47.13 647.4 48.88 648.63 C 50.62 649.85 52.39 651.04 54.19 652.19 C 55.98 653.33 57.81 654.44 59.65 655.51 C 61.49 656.59 63.35 657.62 65.23 658.63 C 67.11 659.63 69.01 660.6 70.93 661.54 C 72.84 662.48 74.77 663.39 76.71 664.27 C 78.65 665.16 80.6 666.02 82.56 666.86 C 84.52 667.69 86.5 668.5 88.48 669.29 C 90.46 670.08 92.45 670.84 94.45 671.59 C 96.45 672.33 98.45 673.07 100.46 673.76 C 102.48 674.45 104.51 675.1 106.55 675.72 C 108.58 676.35 110.64 676.92 112.69 677.5 C 114.74 678.08 116.8 678.65 118.86 679.19 C 120.92 679.73 122.99 680.26 125.06 680.76 C 127.13 681.25 129.21 681.72 131.29 682.18 C 133.37 682.63 135.45 683.06 137.54 683.47 C 139.63 683.88 141.72 684.27 143.82 684.64 C 152.1 686.1 160.38 687.96 168.66 689.78 C 168.07 691.94 167.52 694.23 166.9 696.25 C 166.28 698.27 165.63 699.96 164.95 701.9 C 164.26 703.84 163.51 705.89 162.79 707.89 C 162.06 709.9 161.33 711.9 160.6 713.91 C 159.87 715.91 159.14 717.92 158.41 719.92 C 157.68 721.93 156.96 723.93 156.22 725.93 C 155.49 727.94 154.76 729.94 154.02 731.94 C 153.27 733.94 152.52 735.93 151.76 737.93 C 150.99 739.92 150.21 741.9 149.44 743.89 C 148.66 745.88 147.88 747.86 147.11 749.85 C 146.33 751.84 145.57 753.83 144.81 755.82 C 144.04 757.81 143.27 759.8 142.5 761.79 C 141.74 763.78 140.95 765.77 140.2 767.76 C 139.46 769.75 138.61 771.87 138.02 773.75 C 137.42 775.63 136.91 777.65 136.64 779.02 C 136.37 780.4 136.37 781.03 136.4 781.99 C 136.42 782.96 136.53 783.93 136.77 784.82 C 137.01 785.71 137.37 786.58 137.84 787.35 C 138.31 788.12 138.92 788.83 139.6 789.42 C 140.29 790.01 141.09 790.51 141.94 790.9 C 142.78 791.29 143.73 791.57 144.68 791.76 C 145.63 791.96 146.12 792.11 147.65 792.06 C 149.19 792.02 151.79 791.82 153.86 791.49 C 155.93 791.15 158.02 790.62 160.07 790.07 C 162.13 789.52 164.16 788.87 166.18 788.19 C 168.2 787.51 170.18 786.74 172.17 785.98 C 174.17 785.22 176.14 784.41 178.13 783.64 C 180.11 782.86 182.1 782.1 184.09 781.34 C 186.08 780.57 188.08 779.82 190.07 779.05 C 192.06 778.27 194.04 777.49 196.02 776.7 C 198 775.91 199.97 775.1 201.95 774.3 C 203.93 773.5 205.91 772.71 207.89 771.92 C 209.87 771.12 211.85 770.34 213.82 769.53 C 215.79 768.72 217.76 767.9 219.72 767.07 C 221.69 766.24 223.64 765.39 225.6 764.55 C 227.56 763.7 229.51 762.84 231.46 761.98 C 233.41 761.12 235.36 760.25 237.31 759.39 C 239.26 758.52 241.2 757.65 243.15 756.79 C 245.1 755.92 247.05 755.05 249 754.18 C 250.94 753.31 252.89 752.44 254.83 751.55 C 256.77 750.66 258.7 749.77 260.64 748.86 C 262.57 747.96 264.49 747.03 266.42 746.13 C 268.35 745.22 270.28 744.32 272.22 743.41 C 274.15 742.5 276.08 741.6 278 740.68 C 279.93 739.77 281.86 738.84 283.78 737.92 C 285.69 736.99 287.65 736.04 289.51 735.13 C 291.38 734.22 293.35 733.23 294.96 732.45 C 296.58 731.68 298.08 730.97 299.21 730.48 C 300.35 729.99 300.93 729.83 301.79 729.5 C 303.88 730.34 306.1 731.21 308.07 732.01 C 310.04 732.81 311.7 733.52 313.61 734.29 C 315.52 735.07 317.55 735.88 319.53 736.66 C 321.51 737.43 323.51 738.2 325.5 738.95 C 327.5 739.71 329.5 740.45 331.51 741.17 C 333.51 741.89 335.53 742.59 337.55 743.26 C 339.58 743.93 341.61 744.57 343.65 745.19 C 345.69 745.81 347.74 746.39 349.8 746.96 C 351.85 747.54 353.91 748.1 355.97 748.65 C 358.03 749.2 360.09 749.74 362.16 750.27 C 364.23 750.79 366.29 751.3 368.37 751.78 C 370.44 752.26 372.53 752.71 374.61 753.14 C 376.7 753.57 378.79 753.97 380.88 754.35 C 382.97 754.74 385.06 755.11 387.16 755.46 C 389.26 755.81 391.36 756.13 393.47 756.42 C 395.57 756.72 397.68 756.99 399.79 757.25 C 401.9 757.51 404.01 757.76 406.13 757.97 C 408.24 758.18 410.36 758.36 412.49 758.51 C 414.61 758.66 416.74 758.76 418.87 758.88 C 421 758.99 423.13 759.11 425.26 759.21 C 427.39 759.31 429.52 759.42 431.65 759.47 C 433.78 759.53 435.91 759.56 438.05 759.54 C 440.18 759.52 442.31 759.46 444.43 759.37 C 446.56 759.28 448.68 759.14 450.81 759 C 452.93 758.87 455.05 758.74 457.17 758.57 C 459.29 758.4 461.41 758.22 463.52 758 C 465.64 757.78 467.74 757.5 469.85 757.25 C 471.96 756.99 474.07 756.74 476.18 756.47 C 478.29 756.19 480.4 755.92 482.5 755.61 C 484.6 755.29 486.7 754.94 488.79 754.56 C 490.89 754.18 492.97 753.77 495.06 753.35 C 497.15 752.92 499.23 752.48 501.31 752.01 C 503.39 751.54 505.46 751.05 507.53 750.53 C 509.6 750.02 511.66 749.49 513.72 748.93 C 515.78 748.37 517.83 747.79 519.88 747.19 C 521.92 746.59 523.96 745.96 525.99 745.31 C 528.02 744.66 530.04 743.99 532.06 743.31 C 534.08 742.63 536.09 741.93 538.1 741.22 C 540.11 740.51 542.12 739.8 544.12 739.06 C 546.12 738.32 548.11 737.56 550.09 736.76 C 552.07 735.97 554.03 735.14 555.99 734.29 C 557.95 733.45 559.89 732.57 561.83 731.69 C 563.77 730.8 565.71 729.9 567.63 728.99 C 569.56 728.08 571.48 727.16 573.39 726.21 C 575.3 725.26 577.19 724.29 579.08 723.29 C 580.96 722.3 582.83 721.28 584.69 720.24 C 586.56 719.2 588.41 718.15 590.25 717.07 C 592.09 715.99 593.91 714.88 595.72 713.76 C 597.54 712.64 599.33 711.49 601.13 710.34 C 602.92 709.18 604.72 708.03 606.5 706.85 C 608.27 705.67 610.04 704.48 611.78 703.25 C 613.52 702.03 615.24 700.76 616.95 699.48 C 618.66 698.21 620.35 696.91 622.04 695.61 C 623.73 694.31 625.42 693.01 627.09 691.69 C 628.77 690.37 630.43 689.04 632.08 687.69 C 633.73 686.34 635.36 684.96 636.99 683.59 C 638.62 682.21 640.24 680.82 641.85 679.42 C 643.45 678.02 645.06 676.62 646.63 675.18 C 648.21 673.75 649.77 672.29 651.31 670.81 C 652.84 669.34 654.36 667.83 655.86 666.32 C 657.37 664.81 658.85 663.28 660.32 661.73 C 661.79 660.19 663.24 658.62 664.68 657.05 C 666.12 655.47 667.54 653.89 668.95 652.29 C 670.37 650.7 671.78 649.1 673.16 647.48 C 674.55 645.86 675.92 644.23 677.28 642.58 C 678.64 640.94 679.98 639.28 681.31 637.62 C 682.64 635.95 683.97 634.28 685.27 632.59 C 686.58 630.91 687.87 629.21 689.14 627.5 C 690.41 625.78 691.65 624.05 692.89 622.31 C 694.12 620.57 695.34 618.82 696.54 617.06 C 697.75 615.3 698.94 613.53 700.11 611.75 C 701.28 609.97 702.44 608.18 703.58 606.38 C 704.72 604.57 705.84 602.76 706.95 600.94 C 708.06 599.12 709.14 597.28 710.22 595.44 C 711.3 593.6 712.37 591.76 713.42 589.91 C 714.48 588.05 715.53 586.2 716.55 584.32 C 717.56 582.45 718.55 580.56 719.53 578.67 C 720.51 576.77 721.47 574.86 722.41 572.95 C 723.36 571.04 724.3 569.12 725.22 567.2 C 726.14 565.28 727.04 563.34 727.93 561.4 C 728.82 559.46 729.69 557.52 730.53 555.56 C 731.38 553.6 732.2 551.64 733 549.66 C 733.8 547.68 734.57 545.69 735.34 543.71 C 736.11 541.72 736.88 539.73 737.63 537.73 C 738.37 535.73 739.11 533.73 739.81 531.72 C 740.51 529.7 741.18 527.68 741.84 525.65 C 742.49 523.62 743.12 521.58 743.75 519.54 C 744.38 517.51 745.01 515.47 745.61 513.42 C 746.22 511.38 746.81 509.33 747.37 507.27 C 747.93 505.21 748.46 503.15 748.98 501.08 C 749.49 499.01 749.98 496.93 750.47 494.86 C 750.95 492.78 751.4 490.69 751.88 488.62 L 754.92 475.13 L 767.68 462.48 C 769.21 461 770.74 459.5 772.25 458 C 773.77 456.5 775.28 455 776.79 453.49 C 778.3 451.98 779.8 450.47 781.3 448.95 C 782.8 447.43 784.3 445.91 785.77 444.37 C 787.25 442.83 788.72 441.28 790.17 439.72 C 791.63 438.16 793.06 436.59 794.49 435.01 C 795.93 433.43 797.36 431.85 798.77 430.25 C 800.18 428.65 801.58 427.04 802.96 425.42 C 804.33 423.79 805.69 422.14 807.04 420.49 C 808.38 418.84 809.72 417.17 811.04 415.5 C 812.36 413.83 813.68 412.15 814.98 410.46 C 816.28 408.77 817.57 407.07 818.83 405.35 C 820.1 403.64 821.36 401.91 822.59 400.17 C 823.82 398.43 825.02 396.67 826.22 394.9 C 827.42 393.14 828.61 391.37 829.78 389.59 C 830.96 387.81 832.14 386.03 833.29 384.23 C 834.44 382.44 835.58 380.63 836.69 378.81 C 837.8 376.99 838.88 375.15 839.93 373.3 C 840.99 371.45 842.01 369.57 843.01 367.69 C 844.01 365.81 844.98 363.91 845.94 362 C 846.91 360.1 847.87 358.19 848.8 356.28 C 849.73 354.36 850.65 352.43 851.53 350.49 C 852.41 348.55 853.26 346.59 854.06 344.62 C 854.86 342.65 855.63 340.66 856.35 338.65 C 857.07 336.65 857.76 334.63 858.39 332.6 C 859.03 330.57 859.62 328.53 860.16 326.47 C 860.7 324.41 861.18 322.34 861.61 320.26 C 862.05 318.18 862.43 316.08 862.76 313.99 C 863.09 311.89 863.36 309.78 863.59 307.67 C 863.82 305.56 863.98 303.44 864.11 301.33 C 864.25 299.21 864.37 297.1 864.41 294.99 C 864.45 292.88 864.44 290.78 864.35 288.67 C 864.27 286.56 864.1 284.45 863.89 282.34 C 863.69 280.24 863.43 278.12 863.11 276.03 C 862.79 273.93 862.4 271.83 861.97 269.76 C 861.53 267.69 861 265.57 860.47 263.58 C 859.95 261.59 859.29 259.42 858.82 257.83 C 858.36 256.23 857.98 255.07 857.67 253.99 C 857.35 252.9 857.18 252.21 856.94 251.32 C 857.81 249.25 858.8 247.07 859.55 245.1 C 860.3 243.12 860.92 241.44 861.42 239.47 C 861.93 237.5 862.33 235.37 862.58 233.28 C 862.84 231.2 862.94 229.06 862.94 226.94 C 862.94 224.83 862.84 222.7 862.58 220.61 C 862.31 218.52 861.91 216.43 861.35 214.41 C 860.79 212.38 860.06 210.38 859.21 208.45 C 858.37 206.51 857.37 204.62 856.28 202.82 C 855.19 201.01 853.98 199.25 852.66 197.6 C 851.35 195.95 849.92 194.37 848.39 192.93 C 846.85 191.49 845.19 190.17 843.45 188.98 C 841.71 187.79 839.86 186.73 837.96 185.79 C 836.07 184.86 834.09 184.05 832.09 183.38 C 830.09 182.71 828.03 182.15 825.96 181.76 C 823.89 181.37 821.77 181.11 819.67 181.05 C 817.57 180.98 815.44 181.09 813.36 181.36 C 811.28 181.64 809.2 182.09 807.19 182.7 C 805.18 183.3 803.19 184.07 801.3 184.98 C 799.41 185.89 797.58 186.98 795.83 188.16 C 794.08 189.34 792.39 190.66 790.8 192.05 C 789.2 193.44 787.66 194.92 786.26 196.49 C 784.86 198.07 783.54 199.75 782.38 201.5 C 781.21 203.26 780.16 205.12 779.25 207.02 C 778.33 208.92 777.54 210.9 776.89 212.91 C 776.24 214.91 775.71 216.98 775.34 219.05 C 774.96 221.12 774.7 223.23 774.62 225.33 C 774.54 227.42 774.62 229.54 774.86 231.62 C 775.1 233.71 775.52 235.8 776.06 237.83 C 776.6 239.87 777.3 241.88 778.11 243.83 C 778.92 245.78 779.85 247.71 780.91 249.53 C 781.98 251.35 783.17 253.11 784.48 254.75 C 785.8 256.39 787.27 257.93 788.82 259.36 C 790.37 260.8 792.04 262.13 793.77 263.35 C 795.49 264.57 797.3 265.72 799.16 266.69 C 801.03 267.67 802.97 268.53 804.96 269.2 C 806.95 269.87 809.01 270.37 811.08 270.73 C 813.16 271.09 815.28 271.29 817.39 271.35 C 819.49 271.4 821.63 271.3 823.71 271.06 C 825.79 270.83 827.93 270.35 829.85 269.94 C 831.77 269.53 833.99 268.9 835.21 268.6 C 836.44 268.3 836.43 268.28 837.2 268.13 C 837.97 267.98 838.95 267.84 839.83 267.69 Z M 369.73 672.67 C 373.76 671.46 377.79 670 381.82 668.99 C 383.81 668.48 385.93 667.97 387.99 667.45 C 390.05 666.92 392.12 666.37 394.18 665.82 C 396.24 665.27 398.3 664.71 400.36 664.15 C 402.42 663.59 404.47 663.03 406.53 662.46 C 408.59 661.9 410.64 661.33 412.7 660.76 C 414.75 660.19 416.81 659.62 418.86 659.03 C 420.91 658.44 422.95 657.84 425 657.24 C 427.04 656.63 429.08 656.01 431.12 655.38 C 433.15 654.75 435.19 654.1 437.22 653.45 C 439.25 652.8 441.28 652.13 443.3 651.47 C 445.33 650.8 447.35 650.13 449.38 649.45 C 451.4 648.78 453.42 648.1 455.44 647.43 C 457.47 646.75 459.49 646.07 461.51 645.38 C 463.53 644.69 465.54 644 467.56 643.29 C 469.57 642.59 471.57 641.87 473.58 641.14 C 475.58 640.41 477.58 639.67 479.58 638.93 C 481.59 638.2 483.59 637.47 485.59 636.72 C 487.58 635.97 489.58 635.23 491.57 634.46 C 493.56 633.69 495.54 632.9 497.52 632.1 C 499.49 631.3 501.46 630.48 503.43 629.67 C 505.41 628.85 507.38 628.04 509.35 627.23 C 511.32 626.42 513.3 625.61 515.27 624.8 C 517.24 623.98 519.21 623.16 521.18 622.34 C 523.14 621.51 525.11 620.69 527.07 619.85 C 529.03 619 530.98 618.14 532.92 617.28 C 534.87 616.41 536.81 615.53 538.76 614.65 C 540.7 613.78 542.65 612.9 544.59 612.02 C 546.53 611.14 548.47 610.25 550.4 609.34 C 552.33 608.44 554.25 607.52 556.17 606.59 C 558.09 605.66 560 604.71 561.91 603.77 C 563.83 602.82 565.74 601.87 567.64 600.92 C 569.55 599.97 571.46 599.01 573.37 598.06 C 575.27 597.1 577.18 596.14 579.08 595.17 C 580.98 594.21 582.88 593.24 584.78 592.26 C 586.67 591.27 588.55 590.28 590.44 589.28 C 592.32 588.28 594.19 587.26 596.07 586.25 C 597.94 585.23 599.82 584.21 601.68 583.19 C 603.55 582.16 605.42 581.13 607.28 580.09 C 609.15 579.06 611.01 578.03 612.87 576.99 C 614.73 575.95 616.59 574.91 618.45 573.85 C 620.3 572.8 622.15 571.73 623.99 570.67 C 625.84 569.6 627.69 568.52 629.52 567.45 C 631.35 566.38 633.25 565.27 634.99 564.27 C 636.74 563.26 638.76 562.12 639.99 561.44 C 641.62 560.54 643.24 559.9 644.87 559 C 641.8 564.63 638.72 570.67 635.65 575.17 C 634.45 576.93 633.21 578.67 631.97 580.4 C 630.73 582.14 629.47 583.86 628.2 585.57 C 626.93 587.28 625.66 588.99 624.36 590.68 C 623.05 592.37 621.74 594.04 620.39 595.7 C 619.05 597.35 617.68 598.98 616.29 600.6 C 614.9 602.22 613.48 603.81 612.06 605.4 C 610.64 606.99 609.21 608.57 607.76 610.13 C 606.31 611.69 604.85 613.24 603.36 614.77 C 601.88 616.3 600.37 617.81 598.85 619.3 C 597.33 620.8 595.79 622.28 594.23 623.72 C 592.67 625.17 591.08 626.59 589.47 627.99 C 587.87 629.4 586.24 630.78 584.6 632.13 C 582.96 633.49 581.3 634.83 579.62 636.14 C 577.94 637.45 576.24 638.74 574.52 640 C 572.8 641.26 571.05 642.49 569.3 643.7 C 567.55 644.91 565.78 646.1 563.99 647.27 C 562.21 648.45 560.42 649.6 558.62 650.74 C 556.81 651.87 554.99 652.98 553.15 654.07 C 551.32 655.15 549.46 656.2 547.59 657.22 C 545.72 658.24 543.83 659.23 541.93 660.19 C 540.02 661.14 538.1 662.07 536.17 662.98 C 534.24 663.88 532.3 664.75 530.34 665.61 C 528.39 666.46 526.42 667.29 524.45 668.09 C 522.48 668.9 520.5 669.69 518.5 670.45 C 516.51 671.2 514.51 671.94 512.49 672.63 C 510.48 673.33 508.45 673.99 506.42 674.63 C 504.38 675.26 502.34 675.86 500.29 676.44 C 498.24 677.03 496.18 677.59 494.12 678.12 C 492.05 678.65 489.98 679.16 487.9 679.63 C 485.83 680.09 483.74 680.5 481.65 680.89 C 479.56 681.29 477.46 681.64 475.36 681.98 C 473.26 682.33 471.16 682.66 469.06 682.96 C 466.95 683.25 464.85 683.52 462.74 683.75 C 460.62 683.98 458.51 684.19 456.39 684.33 C 454.27 684.48 452.14 684.56 450.01 684.63 C 447.88 684.69 445.75 684.69 443.62 684.71 C 441.49 684.72 439.35 684.72 437.22 684.72 C 435.09 684.71 432.95 684.72 430.82 684.69 C 428.69 684.66 426.56 684.64 424.43 684.54 C 422.31 684.45 420.19 684.31 418.07 684.13 C 415.95 683.95 413.84 683.71 411.73 683.45 C 409.63 683.18 407.52 682.88 405.43 682.53 C 403.33 682.19 401.24 681.81 399.15 681.4 C 397.06 680.99 394.98 680.55 392.9 680.07 C 390.83 679.59 388.75 679.08 386.7 678.54 C 384.65 678 382.53 677.41 380.59 676.83 C 376.97 675.75 373.35 674.05 369.73 672.67 Z" fill="url(#tsg)"/>
		<path d="M 694.54 190.93 C 721.55 188.16 749 191.52 774.94 199.36 L 769.01 212.83 C 748.28 206.76 726.56 203.72 704.95 204.78 A 341.7 341.7 0 0 0 694.54 190.93 Z" fill="url(#tsg)"/>
	</g>
	<circle cx="820.02" cy="227.23" r="46.5" fill="url(#tsg)"/>
	<circle cx="316.42" cy="409.93" r="35.70" fill="url(#tsg)"/>
	<circle cx="429.82" cy="409.93" r="35.70" fill="url(#tsg)"/>
	<circle cx="543.22" cy="409.93" r="35.70" fill="url(#tsg)"/>
</svg>